<?xml version="1.0" encoding="utf-8"?>
<!-- Generator: Adobe Illustrator 18.0.0, SVG Export Plug-In . SVG Version: 6.00 Build 0)  -->
<!DOCTYPE svg PUBLIC "-//W3C//DTD SVG 1.1//EN" "http://www.w3.org/Graphics/SVG/1.1/DTD/svg11.dtd">
<svg version="1.1" id="Слой_2" xmlns="http://www.w3.org/2000/svg" xmlns:xlink="http://www.w3.org/1999/xlink" x="0px" y="0px"
	 viewBox="0 0 1168 850" enable-background="new 0 0 1168 850" xml:space="preserve">
<path fill="#000000"    d="M1158.6,737.2c3.6-16.9,2-40.3,0-49.5
	s-1.5-25.5-5.1-33.2c-3.6-7.7-8.2-21.5-13.8-28.6c-2.1-2.6-2.9-5.2-3.1-7.7c1.4-9.2,3.6-19.7,1.9-28.7c0.9,1.1,2.1,3.1,2.8,4.7
	c2.1-4.3-0.2-13.2-0.9-18.1c-0.8-5.3-3.8-14-2.6-19.2c2.2,2.4,3.1,6.9,5.2,10c1.8-9.5-4.2-19.1-4.7-28.2c1.1,1.8,2.3,3.7,2.8,5.7
	c-0.1-8.3-4.2-16.1-4.2-24.1c1.8,2.8,3.6,5.5,4.9,8.4c0.5-6.4-2.5-12.8-5.2-18.7c-0.5-2.2-0.4-4.6-0.2-6.8c0.4,0.5,0.9,1,1.3,1.6
	c0.8-8.4-3.5-15.6-6.8-22.9c1.5,1.2,2,3.5,3.2,5.2c-1.2-2.4-0.8-6.5-1.3-9.3c-0.6-3.5-1.1-7.4-1.4-10.8c-0.8-8.3-3.6-15.9-6.7-23.7
	c0.2,0.4,0.7,0.9,1,1.2c-1.9-6.5-5.1-13.7-6.4-20.5c0.4,0.5,1.3,1,1.8,1.7c-1-1.9-0.4-4.2-0.7-6.4c-0.5-3.4-1.7-7.1-2.7-10.4
	c-1.9-6-4.2-12-6.5-17.6c1.9,1,2.9,3.1,4.6,4.5c-1.6-7.9-6.5-14.5-8.9-22c0.5,0.2,0.8,0.2,1.3,0.3c2.1-7.3-10.5-14.8-12.7-21.5
	c0.9,1.1,1.5,1.1,2.6,1.8c-1.6-6.3-9.3-10.9-10.2-17.4c0.4,0.4,0.8,0.8,1.1,1.2c-6-7.8-10.5-17.6-14.5-26.1
	c-2.1-4.4-4.6-8.2-7.6-12.1c-2.8-3.5-8.2-9.3-8.7-13.6c0.6,0.4,1.9,0.8,2.5,1.2c-2.3-4.2-5-8.2-8.1-12.1c-2.5-3.2-9.1-9.1-8.1-13.5
	c1.2,0.2,1.9-0.2,3.1,0.7c-3.9-5.3-14.7-11.6-15.5-18.2c0.3,0.3,0.5,0.6,0.8,0.9c-2.7-3.1-3.7-7.1-6.3-10.4c0.6,0.6,1.2,0.7,1.8,1.2
	c-5.4-12.2-18.1-22.7-28.4-30.2c-2.2-1.6-4.4-3.4-6.6-5.2c-4.1-8.8-11-15.7-29.5-31.9c-29.1-25.5-83.8-35.8-129.7-46
	S696.9,110,661.1,111s-77.6,10.2-81.2,10.2s-12.8-2.6-31.7-8.2c-7.7-2.3-22.4-4.7-39-6.9c1.6-0.4,3.1-0.9,4.2-1.6
	c-4.8-1-10-2.3-14.9-2.7c-5-0.4-10.2,0.4-15.1-0.1c0.1-1.1,1.1-1.7,2.3-2c-3.1,0-6.3-0.2-9.4,0.1c-2.5,0.2-4.7,1.2-7.2,0.8
	c0.2-1.1,1.2-1.8,2.3-2.5c-3,0.7-6.4,2.7-9.5,2c0.3-0.5,0.4-1.4,0.9-1.9c-1.8,0.5-3.5,1.3-5.2,2.2c-0.6-0.1-1.2-0.1-1.8-0.2
	c1.8-1.9,3.6-3.6,5.1-6c-2.6,1.9-6.1,2.4-9.2,3c-2.8,0.5-5.3,1.2-7.8,2.1c-0.8-0.1-1.6-0.1-2.4-0.1c-0.3,0-0.5,0-0.8,0
	c1.1-1.5,3.2-3,4.7-3.6c-2.6,0.1-5.5,0.5-8,0.9c-2.1,0.4-4,1.7-6,2.3c-0.5,0-1,0-1.5,0c1-2.3,3-4.3,5.3-5.2
	c-4.3-2.8-12.2,3.7-16.6,4.5c-0.5-1.6,1-2.8,2.3-3.4c-2.6,1.2-10.7,4.9-11.7,0c-4,1.1-8.9,1.9-12.5,3.5c1.3-0.8,2.2-2,1.8-3.5
	c-3.6,0.9-9.4,1.2-13-0.1c1.8-1.2,5.3-4.7,7.3-4.6c-4.2,0-8.3,0.4-12.5,0.5c-2,0.1-5.2,1.3-6.7-0.1c0.5-1.3,1.8-2.4,3.3-2.4
	c-2.4,0-4.7,0-7,0.5c-1.5,0.4-3.5,1.6-4.5,1.1c4.2-1.4,2.6-5.8,4.6-8.1c-3,1.5-5.9,3.8-9.2,4.8c0.5-1.5,0.6-3.3,1-4.9
	c-1.7,1.9-9.1,5.4-11.7,3.3c0.5-0.5,1.1-1.5,1.7-2c-1.9,0.9-4.3,0.7-6.3,0.5c1.3-2.1,3.6-3.7,5-5.8c-5.6,3.1-16.7,3.2-22.9,2.2
	c1.1-0.8,3.1-1.2,4.6-1.9c0.9-0.5,1.8-1.2,2.6-1.8c-3.4,1.2-8.6,1.2-11.8,0.2c0.1-1.4,2.3-2.3,3.9-2.5c-3.8,0-7.8,0.4-11.6-0.1
	c3.2-2.4,8.4-2,12.1-3.5c-5.5,0.7-10.9-2.8-16.8-1.9c-3.2,0.5-6.9,1.6-10,2.8c-2.4,0.9-5,3.3-7.6,2.6c1-2.2,3.8-3.6,6.2-4.5
	c-2.7,0.6-6.2,0-8.8,0.6c-4.4,1.1-7.7,4.2-11.8,5.5c-0.4-2.1,2.1-5.1,3.9-6c-4.6,0.5-9,4.4-13.6,4.4c1.7-2.4,4.8-8.4,7.5-9.5
	c-4.1,1.7-9.4,4.9-14.2,6c-0.2-2.1,1.9-3.8,3.1-5.4c-2.7,1.3-7.3,3.5-10.2,3.3c0.2-1.6,2.4-1.7,2.4-3.4c-1.9,0.2-4.1,1.2-6,1.4
	c1-1.8,2.7-3.8,4.6-4.8c-4.7,2.9-10.7,4.3-16.3,3.8c3.2-2.8,4.9-6.7,7.6-9.4c-2.7,1.3-7.7,2.9-10.7,2.2c1.1-1.5,2.9-3.7,4.5-4.8
	c-1.8,0.4-3.7,1.1-5.5,0.7c0.3-1.3,1.5-2.8,2.8-3.5c-2.6,1.3-5.2,2.3-8,3c1.1-1,2.3-2.3,3-3.8c-3.3,1.2-6.4,2.9-9.6,4.5
	c-2.3-2.9-6.2-8.2-9.3-13.9c-4.6-8.7-20.9-23.5-34.2-23.5c-8.1,0-13.6,8.6-16.6,15.3c-0.3-0.1-0.6-0.1-0.9-0.1
	c-2.2,0.5-3.8,4.5-4.7,8l-1.3,0.1c0.2-2,0.4-4-0.3-5.3c-1,1.9-2.1,3.7-3,5.5l-0.1,0c0.6-3.4-0.4-8,0.7-11.3c-0.8,1.6-2,3.1-3.2,4.5
	c0-1-0.2-1.8,0.2-2.9c-1.8,2.1-2.9,4-4,6.6c-1.2-2.2,0.2-5.3,0.6-7.6c-3,1.5-3.7,4.1-4.6,7c-0.3,0.2-0.6,0.2-0.8,0
	c0-0.6-0.2-1.3-0.2-1.9c-1.4,0.8-1.4,3-2.4,4.4c-0.3-2.3-1.2-4.6-1.2-7c-1.4,2.1-2.4,5.5-3.5,8c0.2-1.3-0.9-5-1.4-5.9
	c-0.7,1.8-1.1,4.7-3.1,5.5c-0.6-0.8-0.9-1.9-0.7-3c-0.8,1.1-1.5,3.4-2.3,4.5c-0.2-1.8-0.8-3.3-1.2-5c-1,1.8-1.7,3.9-2.8,5.9L121,42
	c-0.4-2.4-1.3-4.2-1.8-7c0,1.9,0.4,5.9-2.5,5.4c0.1-0.5-0.3-1.4-0.2-1.9c-0.8,0.4-1.6,0.6-2.3,1.4c0.3-0.8,0.3-1.8,0.3-2.8
	c-1.1,1.8-3.3,2.5-5,3.3c-0.5-1.2-0.8-2.5-0.6-3.9c-1.3,1.8-3.4,3.7-5.6,3.8c0.1-0.7-0.3-1.7-0.2-2.3c-0.6,0.8-1.5,1.5-2.4,1.8
	c0.1-0.9-0.3-2.1-0.2-3c-1.4,1-2.7,2.6-3.7,4.4c-2.6-0.4-5.4-0.8-7.9-1.4C78.4,37.4,33.9,15,21.2,7.3s-10.7-1.5-4.6,13.8
	s28.6,71,28.6,71s-7.7,17.9-12.3,36.3s5.1,70,5.6,85.8s-11.7,31.2-20.9,47.5s-12.8,25-10.2,37.8s24,20.9,24,20.9s3.1,5.1,12.3,8.2
	s24.5,5.6,43.4-7.7c18.9-13.3,34.7-15.3,34.7-15.3s1.5,2.4,3.9,6.2c-0.3,0.9-0.7,1.8-1.1,2.6c0.8-0.3,1.3-0.9,1.7-1.6
	c0.1,0.1,0.1,0.2,0.2,0.3c-0.5,2.7-1,5.4-2.5,7.7c2.1-1.3,3.4-3.1,4.1-5.3c0.1,0.2,0.3,0.5,0.4,0.7c-0.1,4-0.2,7.9-0.9,11.8
	c2-1.6,3.8-3.4,4.9-5.4c0.3,0.5,0.7,1,1,1.6c-0.3,3.3-0.9,6.5-3.3,9.2c1.5-1,3.7-2.8,4.9-4.6c-0.6,1.8-0.6,3.8-0.9,5.5
	c1.2-1,2.1-2.7,3-4.2c0.1,0.2,0.3,0.4,0.4,0.6c-0.3,3.6-1.2,6.6-2.3,10.2c2.1-1,3.8-3.5,4.8-6.2c0,0.1,0.1,0.1,0.1,0.2
	c-0.1,4.2,0.4,8.6-1.1,12.5c1.5-1.6,3.1-4.6,4.2-7.7c0.1,0.2,0.3,0.5,0.4,0.7c0,0.3,0,0.7,0,1c0,2,0.5,5.9,0.4,8.9
	c0.7-1.7,1.8-3.5,2.7-5.1c0.1,0.2,0.3,0.4,0.4,0.6c-0.3,2,0,4.1,0.1,5.8c0.9-0.6,1.5-1.5,2-2.6c0.5,0.7,1,1.5,1.4,2.1
	c0.2,1.6,0.5,3.2,1.1,4.9c0.1-0.8,0.3-1.6,0.6-2.4c0.8,1.2,1.6,2.3,2.3,3.3c-0.3,3-0.9,6-0.8,8.3c1.3-1.7,2.3-3.3,3.2-5
	c0.2,0.2,0.3,0.4,0.4,0.6c0.4,0.5,0.8,1,1.3,1.7c0.3,3.7,0.9,7.4,1.4,11.1c1.4-1.5,1.1-4.1,2.5-5.9c0.1,0.2,0.3,0.4,0.5,0.6
	c0,4,0.5,7.8,0.5,11.8c0.4-2.1,1.4-5,2.6-6.8c-0.1,3.4,0.8,8.1-0.3,11.1c1.9-1.5,4.3-3.4,4.4-6c-0.2,3.2,0.6,6.2,0.5,9.4
	c0.8-1.7,1.9-3.6,3.5-4.6c0.2,0.3,0.5,0.6,0.7,0.9c0.3,3.1,0,9.1-1,10.9c1.7-1,3.5-3.6,4.5-6.3c0.3,0.4,0.6,0.8,0.9,1.2
	c-0.2,4.5-0.9,8.7-2.9,13.3c2.6-0.9,5.5-5,7.3-7.5c0.1,0.2,0.3,0.3,0.4,0.5c0.2,3.3-0.7,7.3-1.1,10.4c0.6-1.6,1.2-3.4,2.5-4.4
	c0.4,2.4-0.4,5.4-0.4,8c1.1-1.6,3.1-4.1,4-6.4c0,2.9,0.9,6.2-0.7,8.6c2.2-0.2,4.3-1.3,6.2-2.8c7.9,10.1,15.3,19.1,20.2,24.2
	c14.3,14.8,25.5,19.9,28.6,23.5c3.1,3.6,6.6,49,10.2,69.5c3.6,20.4,3.1,103.2-1,127.7s0.5,40.9-1,50.6s-20.9,51.1-26,58.7
	s-22,6.6-31.2,7.7c-9.2,1-10.2,0.5-28.6,15.8s-12.3,19.4,0,27.6c12.3,8.2,32.7,2.6,32.7,2.6s2.6,5.6,36.3,3.6
	c33.7-2,34.2-15.8,43.4-40.9c9.2-25,14.8-42.9,18.9-50.6c4.1-7.7,7.2-4.1,11.2-6.6c4.1-2.6,3.6-10.2,6.1-21.5
	c2.6-11.2-3.1-59.2,0-74.1s7.2-33.2,14.8-69s22-65.4,25-69c3.1-3.6,12.8-2,14.8,1.5c2,3.6,3.6,12.8,5.1,28.1
	c1.5,15.3,7.2,37.8,8.2,51.6c1,13.8,4.6,91.9,7.2,117s7.7,20.9,7.7,41.9s-14.8,51.6-15.8,53.1c-1,1.5-9.2,1-24,8.2
	c-14.8,7.2-20.9,9.7-34.7,30.6c-13.8,20.9,0.5,15.3,14.8,20.9s35.2-5.1,35.2-5.1s3.1,5.1,12.3,5.1s16.3-4.1,37.8-13.3
	c21.5-9.2,17.4-26.6,19.4-38.3c2-11.7,6.6-36.8,6.6-45.5c0-8.4,5.7-11,6.1-13.5c1.3,1,2.6,2.2,3.8,3.8c0.9-1.1,1.1-2.5,1.5-4
	c1.2,0.6,1.9,1.8,2.9,2.8c-0.6-1.2-0.6-2.5-0.3-3.8c0.3,0.1,0.5,0.3,0.8,0.4c0.1-1.4-0.7-2.5-0.3-4c2.3,2.1,3.8,5.4,7.5,5.5
	c-1.3-2.6-3.9-5.9-3.5-8.9c1.2,0.9,2.4,1.8,3.6,2.7c-0.9-1.6-2.2-3-1-4.9c1.3,1.1,2.8,2.1,4.4,2.4c-1.8-5.2-7.9-8.7-8-14.6
	c0.6,0,1.4-0.3,1.9-0.2c-2.1-2.1-4.8-3.8-6.9-6.2c-0.6-1.4-1.2-2.8-1.8-3.9c-2.6-5.6,2.6-72,2.6-85.3c0-12.9,11-63.1,13.6-94
	c0.1-0.3,0.3-0.7,0.4-0.9c1.7-4.1,3.6-9.4,7.1-12.6c-2.1,3.4-4.7,10.9-4,15.1c2.9-6,7.5-9.9,12.2-15.1c0,3.9-4,7.5-3.5,11.5
	c1.8-1.5,3.3-4,5-5.9c-0.8,3.3-4.4,7.5-3.5,11c2.3-3.9,3.4-7.6,7.1-11.1c1.6-1.5,3.3-2.7,4.4-4.3c1-1.5,1-4.3,3.6-3.4
	c0.7,4-2.8,10.4-5,13.6c1.6-1.1,3.5-1.4,5.1-2.6c1.5-1.1,2.4-3.4,3.6-4.8c-0.7,3.1-1.9,8.6-4.5,10.6c5.5,0.1,8.2-4.6,11.5-7.6
	c0.4,2.3-0.2,4.6-1.4,6.5c3.7-2.3,6.8-9.3,6.6-13.7c6.9,2.8,5,11.9,5.6,17.8c3-2.6,6.9-7.5,9-11c0.6,2.6-1.3,5-1.9,7.4
	c2.5,0.3,5.8-4.1,7.6-5.6c2.1-1.7,5-5.3,7.6-5.5c-0.1,6.8-4,14-1.6,20.8c0.2-2.9,3.3-8,4.8-10.7c2-3.5,5.9-8.1,9.5-10
	c-0.5,2.8-3.8,8.9-2.1,11.5c1-2.5,3.1-5.4,4.7-7.4c-0.9,2.1-1.9,5.4-2,7.8c2.2-2.2,3.7-5.1,5.5-7.6c1.7-2.3,4.2-4.9,4.7-7.9
	c-0.1,5.5-0.6,9.5-2,14.6c3.8-0.8,5.4-3.3,7.2-6.6c1.7-3,4.1-5.9,5.4-8.6c-1.7,3.3,0.1,7.7,0.5,11.3c-0.3-8.4,7.7-19,14.7-22.6
	c-0.7,2.3-0.6,4.7-0.4,7.1c0.5-2,1.2-4,1.6-5.8c0.7,6.4,3.8,11.3,6.6,17c-0.8-4-2.6-12.7,0.9-15.6c-0.2,3.6,1.6,7.5,3.6,10.1
	c0.3-2.4,0.4-6.5,1.7-8.5c0.2,2.2,2.8,6.7,5.6,5.9c-1.4-2.3,3.1-8.3,4.5-10.1c0.6,1.4,0.7,3,1,4.4c1-1.5,1.5-3.5,1.6-5.3
	c1.9,2.1,2.2,4.9,3,7.3c0-3.6,1.7-6.6,1.6-10.4c1.9,2.8,5.4,2.9,6.7,6.3c-0.1-1.1-0.1-2.3,0.1-3.4c2,0.7,2.8,3.3,2.4,5.4
	c2.2-2.3,2.9-5.2,4.5-7.8c0.5,4.6,0.4,8.6,1.6,13c0.5-2.2,2.4-9,5.5-8.4c0.2,1.9,0.1,3.9,0.1,5.9c1.5-2.7,3.8-6.8,4.6-9.9
	c0,5.4,3.5,9.7,3,15c1.5-2.1,2.1-5.5,2.7-7.9c3-0.3,0.7,6.8,0.4,8.4c2.2-3.2,4.4-6.5,7.6-8.8c-1.1,3.7-0.7,8-1.5,11.9
	c2.6-5.5,6.3-10.2,10.6-14.1c0.4,2.2-1.5,4.1-1.9,6c5.1,0.2,8.5-6.1,11.1-9.5c-0.2,1.9-1.3,5.6-2.9,8.5c4.2-3.5,8.6-6.8,11.8-11.2
	c4.3-5.9,7.5-11.7,10-17.9c1.1,5-3.8,8.9-3.5,13.6c3.9-4.9,7.3-9.6,11.7-14c-1.5,3.4-2.9,7.2-3,10.9c2.9-4.5,6.8-7.1,10.3-10.8
	c-2.6,2.9-2.7,7.5-3.6,10.6c1.8-3.8,6.4-9.2,9.6-10.2c-0.3,0.5-0.4,1.4-0.9,1.9c3.8-1,7.5-7,10.2-9.7c2.8-2.7,4.4-5.9,5.6-9.4
	l2.6,0.1c0.2,2.4-0.4,5-1.6,6.6c2-2.2,3.4-4.1,4.3-6.5l1.9,0.1c0.2,2.1-0.2,4.6-0.6,6c2.4-1.9,4.1-3.6,5.6-5.8l9.6,0.3
	c0,0,13.8,26.6,23,39.8c9.2,13.3,19.9,39.3,52.1,64.9c32.2,25.5,39.8,40.9,47,56.7c7.2,15.8,18.4,44.9,20.9,64.9
	c2.6,19.9-10.2,66.9-12.3,70.5c-2,3.6-5.6,10.7-17.9,13.3c-12.3,2.6-29.6,16.3-37.8,26.6c-8.2,10.2-5.1,13.8,5.1,19.4
	c10.2,5.6,27.6,3.1,27.6,3.1s20.4,6.1,44.9,2c24.5-4.1,24.5-23,25.5-28.1c1-5.1,0.5-19.9,1-26c0.5-6.1,9.7-23,12.3-27.1
	c2.6-4.1,9.7-19.9,11.7-33.7c2-13.8,3.1-56.2,3.1-71.5s0.5-16.9-12.3-30.1c-12.8-13.3-45.5-72-45.5-72s4.1,1,8.2,4.1
	c4.1,3.1,39.3,37.8,78.7,56.2c39.3,18.4,46.5,33.7,65.4,52.1c18.9,18.4,29.1,47,35.8,72.5c6.7,25.5,4,56.7,4,56.7
	s-11.2,3.6-13.8,4.6s-13.8,5.6-23,14.8c-5,5-8.5,12.2-10.7,17.7c-1.8,2.8-3.1,5.8-3.6,8.9c-1.6,8.9,13.6,7.7,18.9,6.8
	c0.7-0.1,1.4-0.3,2.1-0.4c5.9,0.4,12.7-0.5,15.5-1c1.6,0.7,3.4,1.2,4.9,1.7c7.8,2.6,17.7,1.1,26,1.1c5.1,0,13.1-3.5,16.7-8.6
	c0.5-0.4,1.1-0.7,1.7-1.1c2.7-1.8,4.4-2.8,6.1-3.9c3.6-0.4,7.2-1.4,8.9-4.7c0.7-1.3,1-2.8,1.1-4.3c3-5.1-0.6-9.8-0.2-14.2
	C1155.5,781.1,1155,754,1158.6,737.2z M1137.7,512.9c-0.5-0.8-0.8-1.6-1-2.5C1137.1,511.2,1137.4,512.1,1137.7,512.9z M1040.1,476.7
	c0,0-6.6-31.2-7.7-52.7c-1-20.9-17.9-73.5-24.5-98.4c0.8-0.7,1.4-1.6,2.2-2.4c2.4,4.5,1.3,10,3.1,14.8c1.9,5.3,3.7,1.6,7.1,4.4
	c4.6,3.8,3.8,14.9,4.4,20.2c2.5,0.1,1.6-2.7,3.1-3.9c1.8,3.7,0.6,17.5,6.2,17.1c0.4,4.8,1.3,11.4,0.7,16c0.3-0.2,0.5-0.6,0.7-0.9
	c1.8,2.5,2,10.6,2.2,14c0.3-0.3,0.8-0.6,1.2-1c1.5,3.2,0.5,7.2,1.9,10.4c0.4-1,1.7-1.8,2.2-2.4c1.7,2.5,0.2,7.8,2.4,8.9
	c-0.8,2.6-0.6,6-0.9,8.7c-0.5,3.7-1.9,7.6-1.5,11.4c0.2-1.3,0.8-2.7,1.6-3.8c1.5,2.7,0.1,8.1,1.3,11.5c0.8,2.3,1.9,3.8,2.6,6.1
	c1.7,6.1,0.8,12.7,1.5,19c2-1.2,2.3-3.3,3.3-5.1c-0.2,8.2,2,15.9,2,24.1c0-0.1,0.1-0.3,0.1-0.4c4.7,1.1,0.2,10.8,0.6,14
	c0-1.1,0.6-2.1,0.8-3.1c0.4-0.3,0.7-0.2,1.1,0c-0.5,5.8-2.6,12.3-4,18.1c0.3-0.7,0.9-1.5,1.3-2.3c0.7,3.2-0.6,7-2,10.7
	C1040.1,513.1,1040.1,487.8,1040.1,476.7z"/>
</svg>
