<?xml version="1.0" encoding="iso-8859-1"?>
<!-- Generator: Adobe Illustrator 19.0.0, SVG Export Plug-In . SVG Version: 6.00 Build 0)  -->
<svg version="1.1" id="Capa_1" xmlns="http://www.w3.org/2000/svg" xmlns:xlink="http://www.w3.org/1999/xlink" x="0px" y="0px"
	 viewBox="0 0 511.874 511.874" style="enable-background:new 0 0 511.874 511.874;" xml:space="preserve">
<path style="fill:#FFFFFF;" d="M507.875,339.673v32.156c0,13.193-10.793,23.994-23.994,23.994H255.937v-16.16
	c6.639,0,11.996-5.357,11.996-11.996s-5.357-11.998-11.996-11.998v-15.996H507.875z"/>
<path style="fill:#94C1FF;" d="M255.937,355.669c6.639,0,11.996,5.359,11.996,11.998s-5.357,11.996-11.996,11.996
	c-6.639,0-11.997-5.357-11.997-11.996S249.298,355.669,255.937,355.669z"/>
<g>
	<path style="fill:#D7E9FF;" d="M507.875,371.83v15.832c0,13.521-10.48,23.994-23.994,23.994c-5.67,0-85.01,0-176.035,0
		c-34.068,0-69.748,0-103.817,0c-91.009,0-170.349,0-176.035,0C14.482,411.656,4,401.183,4,387.662V371.83
		c0,13.193,10.802,23.994,23.994,23.994h227.943H483.88C497.082,395.824,507.875,385.023,507.875,371.83z"/>
	<path style="fill:#D7E9FF;" d="M307.845,411.656l15.996,71.982H188.032l15.996-71.982
		C238.098,411.656,273.777,411.656,307.845,411.656z"/>
</g>
<path style="fill:#FFFFFF;" d="M12.2,389.724c-4.983-4.404-8.201-10.764-8.201-17.895v15.832c0,13.521,10.482,23.994,23.994,23.994
	c0.898,0,3.671,0,7.998,0C23.182,411.656,13.224,402.212,12.2,389.724z"/>
<path style="fill:#94C1FF;" d="M499.673,389.724c-1.016,12.488-10.98,21.932-23.791,21.932c4.328,0,7.107,0,7.998,0
	c13.514,0,23.994-10.473,23.994-23.994V371.83C507.875,378.96,504.658,385.32,499.673,389.724z"/>
<path style="fill:#FFFFFF;" d="M255.937,379.664v16.16H27.993c-13.192,0-23.994-10.801-23.994-23.994v-0.164v-31.992h251.938v15.996
	c-6.639,0-11.997,5.359-11.997,11.998S249.298,379.664,255.937,379.664z"/>
<path style="fill:#94C1FF;" d="M507.875,51.909v287.765H255.937H3.999V51.909c0-13.2,10.802-23.994,23.994-23.994H483.88
	C497.082,27.915,507.875,38.709,507.875,51.909z M483.88,315.679V67.741V51.745h-15.996h-15.996h-23.994h-15.996h-15.996h-15.996
	H363.91H187.954h-31.992H123.97H91.978H59.985H27.993v15.996v247.938H483.88z"/>
<path style="fill:#D7E9FF;" d="M35.991,27.915h-7.998c-13.192,0-23.994,10.794-23.994,23.994v287.765h7.998V51.909
	C11.997,38.709,22.799,27.915,35.991,27.915z"/>
<path style="fill:#5C9EFF;" d="M483.88,27.915h-7.998c13.201,0,23.994,10.794,23.994,23.994v287.765h7.998V51.909
	C507.875,38.709,497.082,27.915,483.88,27.915z"/>
<g>
	<path style="fill:#94C1FF;" d="M309.626,419.654l-1.781-7.998c-34.068,0-69.748,0-103.817,0l-1.781,7.998
		C237.895,419.654,273.98,419.654,309.626,419.654z"/>
	<path style="fill:#94C1FF;" d="M301.628,419.654l14.215,63.984h7.998l-14.215-63.984
		C306.957,419.654,304.285,419.654,301.628,419.654z"/>
</g>
<g>
	<path style="fill:#FFFFFF;" d="M210.261,419.654l-14.23,63.984h-7.998l14.23-63.984
		C204.918,419.654,207.59,419.654,210.261,419.654z"/>
	<rect x="43.987" y="51.909" style="fill:#FFFFFF;" width="211.95" height="263.86"/>
</g>
<g style="opacity:0.3;">
	<rect x="255.937" y="51.909" style="fill:#FFFFFF;" width="16.184" height="263.27"/>
</g>
<rect x="27.997" y="51.831" style="fill:#D7E9FF;" width="15.996" height="264.01"/>
<path style="fill:#FFFFFF;" d="M451.888,268.011h7.998V164.037H283.929v103.974h31.992h31.992H451.888z M255.937,52.065H483.88V316
	H255.937V140.043V76.059V52.065z"/>
<polygon style="fill:#94C1FF;" points="267.933,140.043 267.933,76.059 267.933,76.059 459.886,76.059 459.886,140.043 "/>
<g>
	<polygon style="fill:#D7E9FF;" points="363.667,243.697 347.914,268.011 315.921,268.011 347.914,220.023 	"/>
	<polygon style="fill:#D7E9FF;" points="399.902,188.031 451.888,268.011 347.914,268.011 363.667,243.697 	"/>
</g>
<path style="fill:#94C1FF;" d="M331.917,196.029c0-8.873-7.115-15.996-15.996-15.996c-8.879,0-15.996,7.124-15.996,15.996
	c0,8.803,7.117,15.996,15.996,15.996C324.802,212.025,331.917,204.832,331.917,196.029z M283.929,164.037h175.957v103.974h-7.998
	l-51.986-79.98l-36.235,55.666l-15.754-23.674l-31.992,47.988h-31.992V164.037z"/>
<path style="fill:#FFFFFF;" d="M315.921,180.033c8.881,0,15.996,7.124,15.996,15.996c0,8.803-7.115,15.996-15.996,15.996
	c-8.879,0-15.996-7.193-15.996-15.996C299.925,187.157,307.042,180.033,315.921,180.033z"/>
<rect x="247.937" y="51.909" style="fill:#D7E9FF;" width="7.998" height="263.27"/>
<g style="opacity:0.3;">
	<rect x="283.927" y="164.037" style="fill:#FFFFFF;" width="7.998" height="103.97"/>
</g>
<g>
	<rect x="451.887" y="164.037" style="fill:#5C9EFF;" width="7.998" height="103.97"/>
	<rect x="451.887" y="76.057" style="fill:#5C9EFF;" width="7.998" height="63.984"/>
</g>
<g>
	<path style="fill:#116FFF;" d="M507.875,343.837H3.999c-2.21,0-3.999-1.789-3.999-4c0-2.209,1.789-3.998,3.999-3.998h503.875
		c2.211,0,4,1.789,4,3.998C511.875,342.048,510.085,343.837,507.875,343.837z"/>
	<path style="fill:#116FFF;" d="M255.937,383.828c-8.818,0-15.996-7.178-15.996-15.996c0-8.826,7.178-15.996,15.996-15.996
		s15.996,7.17,15.996,15.996C271.933,376.65,264.755,383.828,255.937,383.828z M255.937,359.833c-4.413,0-7.998,3.584-7.998,7.998
		c0,4.404,3.585,7.998,7.998,7.998c4.412,0,7.998-3.594,7.998-7.998C263.935,363.417,260.349,359.833,255.937,359.833z"/>
	<path style="fill:#116FFF;" d="M188.032,487.802c-0.281,0-0.578-0.031-0.867-0.094c-2.156-0.484-3.515-2.617-3.038-4.773
		l15.996-71.982c0.476-2.146,2.593-3.49,4.772-3.037c2.156,0.477,3.515,2.615,3.039,4.771l-15.997,71.982
		C191.523,486.529,189.867,487.802,188.032,487.802z"/>
	<path style="fill:#116FFF;" d="M323.841,487.802c-1.834,0-3.49-1.273-3.904-3.133l-15.996-71.982
		c-0.477-2.156,0.883-4.295,3.039-4.771c2.186-0.453,4.295,0.891,4.771,3.037l15.996,71.982c0.477,2.156-0.883,4.289-3.039,4.773
		C324.419,487.771,324.123,487.802,323.841,487.802z"/>
	<path style="fill:#116FFF;" d="M335.917,487.802h-159.96c-2.211,0-3.999-1.789-3.999-4s1.788-3.998,3.999-3.998h159.96
		c2.211,0,3.998,1.787,3.998,3.998S338.128,487.802,335.917,487.802z"/>
	<path style="fill:#116FFF;" d="M483.88,319.999H27.993c-2.21,0-3.999-1.789-3.999-4V52.065c0-2.21,1.789-3.999,3.999-3.999H483.88
		c2.211,0,4,1.789,4,3.999V316C487.88,318.21,486.091,319.999,483.88,319.999z M31.992,312.001h447.89V56.064H31.992V312.001z"/>
	<path style="fill:#116FFF;" d="M483.88,399.98H27.993C12.559,399.98,0,387.419,0,371.986c0-0.023,0-0.055,0-0.078s0-0.055,0-0.078
		V52.065c0-15.434,12.56-27.993,27.993-27.993H483.88c15.434,0,27.994,12.559,27.994,27.993v319.921
		C511.875,387.419,499.314,399.98,483.88,399.98z M7.998,371.908c0,0.023,0,0.055,0,0.078c0,11.029,8.967,19.996,19.995,19.996
		H483.88c11.029,0,19.996-8.967,19.996-19.996V52.065c0-11.021-8.967-19.995-19.996-19.995H27.993
		c-11.028,0-19.995,8.974-19.995,19.995V371.83C7.998,371.853,7.998,371.884,7.998,371.908z"/>
	<path style="fill:#116FFF;" d="M483.88,415.82H27.993C12.294,415.82,0,403.517,0,387.826v-15.84c0-2.209,1.789-4.076,3.999-4.076
		s3.999,1.711,3.999,3.92v15.996c0,11.396,8.6,19.996,19.995,19.996H483.88c11.396,0,19.996-8.6,19.996-19.996v-15.84
		c0-2.209,1.789-3.998,3.998-3.998c2.211,0,4,1.789,4,3.998v15.84C511.875,403.517,499.58,415.82,483.88,415.82z"/>
	<path style="fill:#116FFF;" d="M43.989,319.999c-2.21,0-3.999-1.789-3.999-4V52.065c0-2.21,1.789-3.999,3.999-3.999
		s3.999,1.789,3.999,3.999V316C47.988,318.21,46.2,319.999,43.989,319.999z"/>
	<path style="fill:#116FFF;" d="M35.991,80.058h-7.998c-2.21,0-3.999-1.789-3.999-3.999s1.789-3.999,3.999-3.999h7.998
		c2.21,0,3.999,1.789,3.999,3.999S38.202,80.058,35.991,80.058z"/>
	<path style="fill:#116FFF;" d="M35.991,104.052h-7.998c-2.21,0-3.999-1.788-3.999-3.999c0-2.21,1.789-3.999,3.999-3.999h7.998
		c2.21,0,3.999,1.789,3.999,3.999C39.99,102.264,38.202,104.052,35.991,104.052z"/>
	<path style="fill:#116FFF;" d="M35.991,128.046h-7.998c-2.21,0-3.999-1.788-3.999-3.999c0-2.21,1.789-3.999,3.999-3.999h7.998
		c2.21,0,3.999,1.789,3.999,3.999C39.99,126.258,38.202,128.046,35.991,128.046z"/>
	<path style="fill:#116FFF;" d="M35.991,152.04h-7.998c-2.21,0-3.999-1.788-3.999-3.999c0-2.21,1.789-3.999,3.999-3.999h7.998
		c2.21,0,3.999,1.789,3.999,3.999C39.99,150.252,38.202,152.04,35.991,152.04z"/>
	<path style="fill:#116FFF;" d="M35.991,176.034h-7.998c-2.21,0-3.999-1.788-3.999-3.999c0-2.21,1.789-3.999,3.999-3.999h7.998
		c2.21,0,3.999,1.789,3.999,3.999C39.99,174.246,38.202,176.034,35.991,176.034z"/>
	<path style="fill:#116FFF;" d="M35.991,200.028h-7.998c-2.21,0-3.999-1.789-3.999-3.999c0-2.21,1.789-3.999,3.999-3.999h7.998
		c2.21,0,3.999,1.789,3.999,3.999C39.99,198.24,38.202,200.028,35.991,200.028z"/>
	<path style="fill:#116FFF;" d="M35.991,224.022h-7.998c-2.21,0-3.999-1.789-3.999-3.999c0-2.21,1.789-3.999,3.999-3.999h7.998
		c2.21,0,3.999,1.789,3.999,3.999C39.99,222.234,38.202,224.022,35.991,224.022z"/>
	<path style="fill:#116FFF;" d="M35.991,248.017h-7.998c-2.21,0-3.999-1.789-3.999-3.999c0-2.21,1.789-3.999,3.999-3.999h7.998
		c2.21,0,3.999,1.789,3.999,3.999S38.202,248.017,35.991,248.017z"/>
	<path style="fill:#116FFF;" d="M35.991,272.011h-7.998c-2.21,0-3.999-1.789-3.999-4c0-2.209,1.789-3.998,3.999-3.998h7.998
		c2.21,0,3.999,1.789,3.999,3.998C39.99,270.222,38.202,272.011,35.991,272.011z"/>
	<path style="fill:#116FFF;" d="M35.991,296.005h-7.998c-2.21,0-3.999-1.789-3.999-4c0-2.209,1.789-3.998,3.999-3.998h7.998
		c2.21,0,3.999,1.789,3.999,3.998C39.99,294.216,38.202,296.005,35.991,296.005z"/>
	<path style="fill:#116FFF;" d="M99.976,80.058H67.983c-2.21,0-3.999-1.789-3.999-3.999s1.789-3.999,3.999-3.999h31.992
		c2.21,0,3.999,1.789,3.999,3.999S102.186,80.058,99.976,80.058z"/>
	<path style="fill:#116FFF;" d="M227.944,104.052h-95.977c-2.211,0-3.999-1.788-3.999-3.999c0-2.21,1.788-3.999,3.999-3.999h95.977
		c2.21,0,3.999,1.789,3.999,3.999C231.943,102.264,230.154,104.052,227.944,104.052z"/>
	<path style="fill:#116FFF;" d="M115.972,104.052h-39.99c-2.21,0-3.999-1.788-3.999-3.999c0-2.21,1.789-3.999,3.999-3.999h39.99
		c2.21,0,3.999,1.789,3.999,3.999C119.971,102.264,118.182,104.052,115.972,104.052z"/>
	<path style="fill:#116FFF;" d="M227.944,128.046h-7.998c-2.211,0-3.999-1.788-3.999-3.999c0-2.21,1.788-3.999,3.999-3.999h7.998
		c2.21,0,3.999,1.789,3.999,3.999C231.943,126.258,230.154,128.046,227.944,128.046z"/>
	<path style="fill:#116FFF;" d="M203.95,128.046H83.979c-2.21,0-3.999-1.788-3.999-3.999c0-2.21,1.789-3.999,3.999-3.999H203.95
		c2.21,0,3.999,1.789,3.999,3.999C207.949,126.258,206.16,128.046,203.95,128.046z"/>
	<path style="fill:#116FFF;" d="M107.974,176.034H83.979c-2.21,0-3.999-1.788-3.999-3.999c0-2.21,1.789-3.999,3.999-3.999h23.994
		c2.21,0,3.999,1.789,3.999,3.999C111.973,174.246,110.184,176.034,107.974,176.034z"/>
	<path style="fill:#116FFF;" d="M227.944,176.034H123.97c-2.21,0-3.999-1.788-3.999-3.999c0-2.21,1.789-3.999,3.999-3.999h103.975
		c2.21,0,3.999,1.789,3.999,3.999C231.943,174.246,230.154,176.034,227.944,176.034z"/>
	<path style="fill:#116FFF;" d="M227.944,152.04H91.978c-2.21,0-3.999-1.788-3.999-3.999c0-2.21,1.789-3.999,3.999-3.999h135.967
		c2.21,0,3.999,1.789,3.999,3.999C231.943,150.252,230.154,152.04,227.944,152.04z"/>
	<path style="fill:#116FFF;" d="M227.944,200.028h-31.992c-2.211,0-3.999-1.789-3.999-3.999c0-2.21,1.788-3.999,3.999-3.999h31.992
		c2.21,0,3.999,1.789,3.999,3.999C231.943,198.24,230.154,200.028,227.944,200.028z"/>
	<path style="fill:#116FFF;" d="M203.95,224.022H75.981c-2.21,0-3.999-1.789-3.999-3.999c0-2.21,1.789-3.999,3.999-3.999H203.95
		c2.21,0,3.999,1.789,3.999,3.999C207.949,222.234,206.16,224.022,203.95,224.022z"/>
	<path style="fill:#116FFF;" d="M139.966,272.011H75.981c-2.21,0-3.999-1.789-3.999-4c0-2.209,1.789-3.998,3.999-3.998h63.984
		c2.21,0,3.999,1.789,3.999,3.998C143.965,270.222,142.176,272.011,139.966,272.011z"/>
	<path style="fill:#116FFF;" d="M227.944,248.017h-39.99c-2.211,0-3.999-1.789-3.999-3.999c0-2.21,1.788-3.999,3.999-3.999h39.99
		c2.21,0,3.999,1.789,3.999,3.999S230.154,248.017,227.944,248.017z"/>
	<path style="fill:#116FFF;" d="M171.958,248.017H83.979c-2.21,0-3.999-1.789-3.999-3.999c0-2.21,1.789-3.999,3.999-3.999h87.979
		c2.21,0,3.999,1.789,3.999,3.999C175.957,246.228,174.168,248.017,171.958,248.017z"/>
	<path style="fill:#116FFF;" d="M99.976,296.005H67.983c-2.21,0-3.999-1.789-3.999-4c0-2.209,1.789-3.998,3.999-3.998h31.992
		c2.21,0,3.999,1.789,3.999,3.998C103.975,294.216,102.186,296.005,99.976,296.005z"/>
	<path style="fill:#116FFF;" d="M227.944,224.022h-7.998c-2.211,0-3.999-1.789-3.999-3.999c0-2.21,1.788-3.999,3.999-3.999h7.998
		c2.21,0,3.999,1.789,3.999,3.999C231.943,222.234,230.154,224.022,227.944,224.022z"/>
	<path style="fill:#116FFF;" d="M179.956,200.028H83.979c-2.21,0-3.999-1.789-3.999-3.999c0-2.21,1.789-3.999,3.999-3.999h95.977
		c2.21,0,3.999,1.789,3.999,3.999C183.955,198.24,182.166,200.028,179.956,200.028z"/>
	<path style="fill:#116FFF;" d="M255.937,319.999c-2.21,0-3.999-1.789-3.999-4V52.065c0-2.21,1.789-3.999,3.999-3.999
		c2.211,0,3.998,1.789,3.998,3.999V316C259.935,318.21,258.148,319.999,255.937,319.999z"/>
	<path style="fill:#116FFF;" d="M347.914,272.011c-0.75,0-1.498-0.203-2.17-0.641c-1.859-1.203-2.383-3.68-1.188-5.529
		l51.994-79.989c0.734-1.133,2-1.82,3.352-1.82l0,0c1.352,0,2.617,0.688,3.35,1.82l51.988,79.981c1.203,1.85,0.68,4.326-1.172,5.537
		c-1.836,1.203-4.326,0.68-5.529-1.18l-48.637-74.826l-48.629,74.826C350.507,271.371,349.218,272.011,347.914,272.011z"/>
	<path style="fill:#116FFF;" d="M315.921,272.011c-0.764,0-1.537-0.219-2.217-0.672c-1.836-1.227-2.336-3.703-1.109-5.545
		l31.992-47.989c0.742-1.109,1.992-1.781,3.326-1.781l0,0c1.336,0,2.586,0.672,3.328,1.789l15.754,23.674
		c1.227,1.835,0.727,4.319-1.109,5.537c-1.844,1.219-4.326,0.742-5.545-1.109l-12.428-18.675l-28.664,42.99
		C318.476,271.386,317.21,272.011,315.921,272.011z"/>
	<path style="fill:#116FFF;" d="M315.921,216.024c-11.027,0-19.994-8.966-19.994-19.995c0-11.021,8.967-19.995,19.994-19.995
		c11.029,0,19.996,8.975,19.996,19.995C335.917,207.058,326.951,216.024,315.921,216.024z M315.921,184.032
		c-6.615,0-11.996,5.382-11.996,11.997c0,6.616,5.381,11.997,11.996,11.997c6.617,0,11.998-5.381,11.998-11.997
		C327.919,189.414,322.539,184.032,315.921,184.032z"/>
	<path style="fill:#116FFF;" d="M459.886,272.011H283.929c-2.209,0-3.998-1.789-3.998-4V164.037c0-2.21,1.789-3.999,3.998-3.999
		h175.957c2.211,0,4,1.789,4,3.999v103.974C463.886,270.222,462.097,272.011,459.886,272.011z M287.929,264.013h167.959v-95.977
		H287.929V264.013z"/>
	<path style="fill:#116FFF;" d="M459.886,80.058H267.933c-2.209,0-3.998-1.789-3.998-3.999s1.789-3.999,3.998-3.999h191.953
		c2.211,0,4,1.789,4,3.999S462.097,80.058,459.886,80.058z"/>
	<path style="fill:#116FFF;" d="M459.886,144.042c-2.209,0-3.998-1.788-3.998-3.999V76.059c0-2.21,1.789-3.999,3.998-3.999
		c2.211,0,4,1.789,4,3.999v63.984C463.886,142.254,462.097,144.042,459.886,144.042z"/>
	<path style="fill:#116FFF;" d="M459.886,144.042H267.933c-2.209,0-3.998-1.788-3.998-3.999c0-2.21,1.789-3.999,3.998-3.999h191.953
		c2.211,0,4,1.789,4,3.999C463.886,142.254,462.097,144.042,459.886,144.042z"/>
	<path style="fill:#116FFF;" d="M435.892,112.05H267.933c-2.209,0-3.998-1.788-3.998-3.999c0-2.21,1.789-3.999,3.998-3.999h167.959
		c2.211,0,4,1.789,4,3.999C439.892,110.262,438.103,112.05,435.892,112.05z"/>
	<path style="fill:#116FFF;" d="M459.886,296.005H283.929c-2.209,0-3.998-1.789-3.998-4c0-2.209,1.789-3.998,3.998-3.998h175.957
		c2.211,0,4,1.789,4,3.998C463.886,294.216,462.097,296.005,459.886,296.005z"/>
</g>
<g>
</g>
<g>
</g>
<g>
</g>
<g>
</g>
<g>
</g>
<g>
</g>
<g>
</g>
<g>
</g>
<g>
</g>
<g>
</g>
<g>
</g>
<g>
</g>
<g>
</g>
<g>
</g>
<g>
</g>
</svg>
