<svg width="155" height="23" viewBox="0 0 155 23" xmlns="http://www.w3.org/2000/svg" xmlns:xlink="http://www.w3.org/1999/xlink"><defs><path d="M0 10.25C0 15.2 3.45 19 10 19c.9 0 1.75-.15 2.6-.35-.55 1.35-1.7 2.8-4.1 3.85h1c4.7 0 9.5-3.95 9.5-8.75v-8.5C13.1 10 5.9 10 0 5.25v5zM18 0H1C.45 0 0 .45 0 1v3c2.9 1.5 5.9 2.3 8.95 2.4C8.25 6.1 8 5.25 8 4.25 8 3 8.65 2 9.5 2S11 3 11 4.25c0 1-.15 1.85-.9 2.15 3-.1 6-.9 8.9-2.4V1c0-.55-.45-1-1-1z" id="a"/></defs><g fill="none" fill-rule="evenodd"><path d="M148.29 2.878c.143-.36.432-.722.72-1.01.29-.29.65-.507 1.012-.65.36-.146.795-.218 1.228-.218.433 0 .867.072 1.228.217.36.144.722.36 1.01.65.29.29.506.65.723 1.01.146.362.29.795.29 1.3 0 .434-.072.867-.29 1.3-.143.362-.432.723-.72 1.012-.29.288-.65.504-1.012.65-.36.143-.795.216-1.228.216-.433 0-.867-.073-1.228-.217-.36-.146-.722-.362-1.01-.65-.29-.29-.506-.65-.723-1.012-.146-.36-.29-.795-.29-1.3 0-.434.072-.867.29-1.3zm.504 2.383c.145.362.29.65.578.868.217.216.506.433.867.578.36.144.65.216 1.082.216.36 0 .722-.072 1.084-.216.288-.145.577-.362.866-.578.217-.217.434-.578.578-.867.144-.36.217-.72.217-1.082 0-.36-.073-.722-.217-1.084-.144-.36-.29-.65-.578-.866-.216-.217-.505-.434-.866-.578-.29-.144-.65-.217-1.084-.217-.36 0-.722.073-1.083.217-.362.144-.58.36-.868.578-.216.216-.433.505-.578.866-.144.362-.216.723-.216 1.084 0 .433.072.794.216 1.083zm2.673-2.96c.433 0 .794.072 1.01.29.217.143.29.432.29.793 0 .36-.073.578-.29.723-.216.144-.433.288-.72.288l1.082 1.662h-.65l-1.012-1.662h-.65v1.662h-.578V2.3h1.517zm-.29 1.73h.362c.143 0 .216 0 .288-.077.072-.077.144-.077.216-.23.073-.076.073-.23.073-.382s0-.23-.073-.305c-.072-.077-.144-.153-.216-.153-.072-.076-.145-.076-.29-.076h-1.082v1.3h.722V4.03z" fill-opacity=".5" fill="#FFF" class="logo-text"/><mask id="b" fill="#fff"><use xlink:href="#a"/></mask><use fill="#1297F7" xlink:href="#a"/><path d="M.016 11.66V5.25l.782.59s-.066 6.582 4.402 9.25 5.825.533 7.137 1.378c1.312.845.267 2.2.267 2.2s-6.87 2.082-11.198-3.45C.368 13.895.016 11.66.016 11.66z" fill="#1B82E3" mask="url(#b)"/><path d="M18 0H1C.45 0 0 .45 0 1v3c2.9 1.5 5.9 2.3 8.95 2.4C8.25 6.1 8 5.25 8 4.25 8 3 8.65 2 9.5 2S11 3 11 4.25c0 1-.15 1.85-.9 2.15 3-.1 6-.9 8.9-2.4V1c0-.55-.45-1-1-1z" fill="#00AEFF" mask="url(#b)"/><g fill="#FFF" class="logo-text"><path d="M34.628 8.843c1.7.378 2.645 2.078 2.645 3.464 0 2.29-1.616 4.24-4.346 4.24h-5.984V2.083h5.543c2.457 0 4.01 1.47 4.01 3.82 0 1.135-.46 2.395-1.868 2.94zm-2.226-.82c1.176 0 1.785-.944 1.785-2.036 0-1.176-.735-1.868-1.932-1.868H29.19v3.904h3.212zM29.19 9.936v4.577h3.632c1.344 0 2.12-1.113 2.12-2.226 0-1.07-.797-2.35-2.183-2.35h-3.57zM39.648 1.41c.798 0 1.428.588 1.428 1.365s-.63 1.365-1.428 1.365c-.777 0-1.45-.588-1.45-1.365s.673-1.365 1.45-1.365zm-1.07 15.138h2.14V6.743h-2.14v9.805zM46.934 19.425c1.995 0 3.275-1.113 3.275-3.863v-.504c-.567 1.09-1.995 1.7-3.318 1.7-2.645 0-4.955-1.973-4.955-5.08 0-3.13 2.31-5.145 4.955-5.145 1.323 0 2.71.588 3.317 1.66v-1.45h2.12V15.1c0 4.514-2.1 6.34-5.396 6.34-1.89 0-3.61-.986-4.535-2.75.377-.168 1.406-.735 1.784-.903.525 1.03 1.68 1.638 2.75 1.638zm.21-10.792c-1.638 0-2.98 1.24-2.98 3.023 0 1.848 1.342 3.024 2.98 3.024 1.47 0 3.023-1.113 3.023-3.024 0-1.952-1.406-3.023-3.023-3.023zM58.547 19.425c1.994 0 3.275-1.113 3.275-3.863v-.504c-.567 1.09-1.994 1.7-3.317 1.7-2.646 0-4.955-1.973-4.955-5.08 0-3.13 2.31-5.145 4.955-5.145 1.323 0 2.708.588 3.317 1.66v-1.45h2.12V15.1c0 4.514-2.1 6.34-5.395 6.34-1.89 0-3.612-.986-4.535-2.75.378-.168 1.407-.735 1.784-.903.525 1.03 1.68 1.638 2.75 1.638zm.21-10.792c-1.638 0-2.982 1.24-2.982 3.023 0 1.848 1.344 3.024 2.982 3.024 1.47 0 3.023-1.113 3.023-3.024 0-1.952-1.407-3.023-3.023-3.023zM75.073 12.412h-7.79c.21 1.512 1.428 2.457 3.003 2.457 1.09 0 2.162-.505 2.666-1.408.546.252 1.197.525 1.764.777-.86 1.72-2.688 2.518-4.535 2.518-2.792 0-5.038-2.036-5.038-5.144 0-3.107 2.246-5.08 5.04-5.08 2.79 0 4.912 1.973 4.912 5.08 0 .23 0 .588-.02.798zm-2.1-1.575c-.21-1.532-1.323-2.414-2.792-2.414-1.51 0-2.687.903-2.897 2.414h5.69zM78.35 16.548h-2.163V6.743h2.163V8.99c.504-1.743 1.47-2.457 2.688-2.457.693 0 1.427.168 1.742.378l-.357 1.996c-.546-.273-1.03-.336-1.448-.336-1.848 0-2.625 1.848-2.625 4.45v3.528M83.6 2.082h5.816c3.128 0 4.41 2.29 4.41 4.598 0 2.31-1.282 4.556-4.41 4.556h-3.57v5.312H83.6V2.082zm2.247 2.058V9.2h3.443c1.617 0 2.31-1.28 2.31-2.52 0-1.218-.672-2.54-2.226-2.54h-3.527zM93.765 11.614c0-3.107 2.33-5.08 5.102-5.08 2.792 0 5.144 1.973 5.144 5.08 0 3.108-2.35 5.144-5.143 5.144-2.772 0-5.102-2.036-5.102-5.144zm8.083 0c0-1.805-1.344-2.96-2.98-2.96-1.618 0-2.962 1.155-2.962 2.96 0 1.848 1.344 3.045 2.96 3.045 1.638 0 2.982-1.198 2.982-3.046zM109.807 6.533c1.554 0 2.96.61 3.884 1.7l-1.678 1.345c-.525-.61-1.344-.945-2.205-.945-1.638 0-3.086 1.155-3.086 2.98 0 1.828 1.45 3.067 3.087 3.067.86 0 1.68-.357 2.205-.966l1.7 1.323c-.923 1.09-2.33 1.72-3.905 1.72-2.813 0-5.228-2.035-5.228-5.143 0-3.107 2.414-5.08 5.227-5.08M116.948 11.992v4.556h-2.142V1.41h2.142v8.567l3.107-3.234h2.898l-4.18 4.262 5.125 5.543h-2.772l-4.178-4.556"/><path d="M132.948 12.412h-7.79c.21 1.512 1.428 2.457 3.003 2.457 1.093 0 2.164-.505 2.668-1.408.545.252 1.196.525 1.763.777-.86 1.72-2.686 2.518-4.534 2.518-2.792 0-5.04-2.036-5.04-5.144 0-3.107 2.248-5.08 5.04-5.08 2.793 0 4.913 1.973 4.913 5.08 0 .23 0 .588-.022.798zm-2.1-1.575c-.21-1.532-1.322-2.414-2.792-2.414-1.512 0-2.687.903-2.897 2.414h5.69zM137.002 6.743h2.08v1.785H137v8.02h-2.162v-8.02h-1.764V6.743h1.764V3.027h2.162v3.716M139.502 9.116c.126-1.45 1.7-2.583 3.506-2.583 1.743 0 3.444.798 3.57 2.898h-2.058c-.084-.734-.756-1.05-1.428-1.05-.546 0-1.176.21-1.386.547-.167.273-.188.588-.083.882.126.377.67.608 1.196.755l1.51.377c2.122.525 2.563 1.87 2.563 2.856 0 1.89-1.66 2.96-3.906 2.96-1.826 0-3.716-1.155-3.758-3.212h1.994c.105.84.797 1.407 1.93 1.407.988 0 1.744-.44 1.744-1.176 0-.63-.65-.987-1.365-1.155l-1.323-.315c-2.078-.567-2.834-1.617-2.708-3.19"/></g></g></svg>
