<?xml version="1.0" encoding="iso-8859-1"?>
<!-- Generator: Adobe Illustrator 19.0.0, SVG Export Plug-In . SVG Version: 6.00 Build 0)  -->
<svg version="1.1" id="Capa_1" xmlns="http://www.w3.org/2000/svg" xmlns:xlink="http://www.w3.org/1999/xlink" x="0px" y="0px"
	 viewBox="0 0 511.874 511.874" style="enable-background:new 0 0 511.874 511.874;" xml:space="preserve">
<path style="fill:#D7E9FF;" d="M507.875,87.978v7.998H3.999v-7.998c0-4.397,3.601-7.998,7.998-7.998h487.879
	C504.275,79.98,507.875,83.581,507.875,87.978z"/>
<path style="fill:#E6E9ED;" d="M418.054,224.425c1.201,3.597,1.842,7.518,1.842,11.517c0,3.679-0.562,7.279-1.6,10.716
	c-1.758,5.601-4.875,10.721-8.959,14.72c-6.477,6.557-15.512,10.556-25.432,10.556c-19.918,0-35.992-16.074-35.992-35.991
	s16.074-35.991,35.992-35.991c3.998,0,7.92,0.641,11.52,1.84c5.273,1.839,10.076,4.799,13.912,8.716
	C413.257,214.345,416.218,219.145,418.054,224.425z"/>
<rect x="163.957" y="271.937" style="fill:#94C1FF;" width="39.99" height="15.996"/>
<rect x="163.957" y="287.927" style="fill:#5C9EFF;" width="39.99" height="15.996"/>
<rect x="107.977" y="167.957" style="fill:#94C1FF;" width="39.99" height="32.07"/>
<rect x="107.977" y="200.027" style="fill:#5C9EFF;" width="39.99" height="55.908"/>
<rect x="51.987" y="215.947" style="fill:#94C1FF;" width="39.99" height="15.996"/>
<rect x="51.987" y="231.947" style="fill:#5C9EFF;" width="39.99" height="55.986"/>
<g>
	<rect x="51.987" y="287.927" style="fill:#D7E9FF;" width="39.99" height="39.99"/>
	<rect x="107.977" y="255.937" style="fill:#D7E9FF;" width="39.99" height="71.982"/>
	<rect x="163.957" y="303.927" style="fill:#D7E9FF;" width="39.99" height="23.994"/>
	<path style="fill:#D7E9FF;" d="M473.322,214.427c-1.359-5.838-3.359-11.517-5.836-16.874c-2.318-5.042-5.037-9.838-8.24-14.317
		c-3.037-4.401-6.561-8.561-10.316-12.317c-3.758-3.761-7.92-7.279-12.318-10.317c-4.475-3.198-9.357-5.999-14.395-8.24
		c-5.357-2.476-10.959-4.476-16.715-5.838c-6.959-1.68-14.16-2.559-21.596-2.559v23.994v22.635v9.357c3.998,0,7.92,0.641,11.52,1.84
		c5.273,1.839,10.076,4.799,13.912,8.716c3.92,3.839,6.881,8.639,8.717,13.919c1.201,3.597,1.842,7.518,1.842,11.517
		c0,3.679-0.562,7.279-1.6,10.716c-1.758,5.601-4.875,10.721-8.959,14.72l8.482,8.478l11.355,11.357l11.279,11.278l8.475,8.475
		c11.113-11.114,19.354-24.955,23.674-40.549c2.162-7.76,3.279-15.996,3.279-24.475c0-0.48,0-0.961,0-1.441
		C475.804,227.624,474.921,220.907,473.322,214.427z"/>
</g>
<path style="fill:#5C9EFF;" d="M440.455,292.491l8.475,8.475c-16.637,16.636-39.592,26.954-65.023,26.954
	c-50.785,0-91.979-41.193-91.979-91.978c0-50.788,41.193-91.978,91.979-91.978v23.994v22.635v9.357
	c-19.918,0-35.992,16.074-35.992,35.991s16.074,35.991,35.992,35.991c9.92,0,18.955-3.999,25.432-10.556l8.482,8.478l11.355,11.357
	L440.455,292.491z"/>
<path style="fill:#94C1FF;" d="M307.923,235.942c0-45.321,32.836-82.909,75.982-90.497v-1.48c-50.785,0-91.979,41.189-91.979,91.978
	c0,50.784,41.193,91.978,91.979,91.978c2.703,0,5.357-0.172,7.998-0.406C344.869,323.452,307.923,284.024,307.923,235.942z"/>
<g>
	<path style="fill:#FFFFFF;" d="M91.978,327.919v-39.99v-55.986v-15.996H51.987v15.996v55.986v39.99H91.978z M147.964,327.919
		v-71.982v-55.908v-32.07h-39.99v32.07v55.908v71.982H147.964z M203.95,327.919v-23.994v-15.996v-15.996h-39.99v15.996v15.996
		v23.994H203.95z M459.246,183.236c-3.037-4.401-6.561-8.561-10.316-12.317c-3.758-3.761-7.92-7.279-12.318-10.317
		c-4.475-3.198-9.357-5.999-14.395-8.24c-5.357-2.476-10.959-4.476-16.715-5.838c-6.959-1.68-14.16-2.559-21.596-2.559
		c-50.785,0-91.979,41.189-91.979,91.978c0,50.784,41.193,91.978,91.979,91.978c25.432,0,48.387-10.318,65.023-26.954
		c11.113-11.114,19.354-24.955,23.674-40.549c2.162-7.76,3.279-15.996,3.279-24.475c0-0.48,0-0.961,0-1.441
		c-0.078-6.877-0.961-13.594-2.561-20.073c-1.359-5.838-3.359-11.517-5.836-16.874C465.167,192.511,462.449,187.715,459.246,183.236
		z M507.875,95.976v335.918H3.999V95.976H507.875z"/>
	<path style="fill:#FFFFFF;" d="M19.995,79.98h-7.998c-4.397,0-7.998,3.601-7.998,7.998v7.998h7.998v-7.998
		C11.997,83.581,15.598,79.98,19.995,79.98z"/>
</g>
<path style="fill:#94C1FF;" d="M491.878,79.98h7.998c4.398,0,7.998,3.601,7.998,7.998v7.998h-7.998v-7.998
	C499.876,83.581,496.277,79.98,491.878,79.98z"/>
<rect x="51.987" y="215.947" style="fill:#D7E9FF;" width="7.998" height="15.996"/>
<rect x="51.987" y="231.947" style="fill:#94C1FF;" width="7.998" height="55.986"/>
<rect x="83.977" y="215.947" style="fill:#5C9EFF;" width="7.998" height="15.996"/>
<rect x="163.957" y="271.937" style="fill:#D7E9FF;" width="7.998" height="15.996"/>
<rect x="195.947" y="271.937" style="fill:#5C9EFF;" width="7.998" height="15.996"/>
<rect x="51.987" y="287.927" style="fill:#FFFFFF;" width="7.998" height="39.74"/>
<rect x="83.977" y="287.927" style="fill:#94C1FF;" width="7.998" height="39.74"/>
<rect x="163.957" y="303.927" style="fill:#FFFFFF;" width="7.998" height="23.994"/>
<rect x="195.947" y="303.927" style="fill:#94C1FF;" width="7.998" height="23.994"/>
<rect x="107.977" y="255.937" style="fill:#FFFFFF;" width="7.998" height="71.982"/>
<rect x="139.967" y="255.937" style="fill:#94C1FF;" width="7.998" height="71.982"/>
<rect x="83.977" y="231.947" style="fill:#116FFF;" width="7.998" height="55.986"/>
<rect x="107.977" y="199.987" style="fill:#94C1FF;" width="7.998" height="55.986"/>
<rect x="139.967" y="199.987" style="fill:#116FFF;" width="7.998" height="55.986"/>
<rect x="163.957" y="287.927" style="fill:#94C1FF;" width="7.998" height="15.996"/>
<rect x="195.947" y="287.927" style="fill:#116FFF;" width="7.998" height="15.996"/>
<rect x="107.977" y="167.957" style="fill:#D7E9FF;" width="7.998" height="32.07"/>
<rect x="139.967" y="167.957" style="fill:#5C9EFF;" width="7.998" height="32.07"/>
<g>
	<path style="fill:#116FFF;" d="M20.233,91.977c-2.207,0-4.038-1.788-4.038-3.999c0-2.21,1.75-3.999,3.96-3.999h0.078
		c2.21,0,3.999,1.789,3.999,3.999C24.232,90.189,22.444,91.977,20.233,91.977z"/>
	<path style="fill:#116FFF;" d="M36.229,91.977c-2.207,0-4.038-1.788-4.038-3.999c0-2.21,1.75-3.999,3.96-3.999h0.078
		c2.21,0,3.999,1.789,3.999,3.999C40.229,90.189,38.439,91.977,36.229,91.977z"/>
	<path style="fill:#116FFF;" d="M52.226,91.977c-2.207,0-4.038-1.788-4.038-3.999c0-2.21,1.75-3.999,3.96-3.999h0.078
		c2.21,0,3.999,1.789,3.999,3.999C56.225,90.189,54.436,91.977,52.226,91.977z"/>
	<path style="fill:#116FFF;" d="M507.875,99.975c-2.209,0-3.998-1.788-3.998-3.999v-7.998c0-2.206-1.797-3.999-4-3.999H11.997
		c-2.207,0-3.999,1.793-3.999,3.999v7.998c0,2.211-1.789,3.999-3.999,3.999S0,98.187,0,95.976v-7.998
		c0-6.615,5.382-11.997,11.997-11.997h487.879c6.615,0,11.998,5.382,11.998,11.997v7.998
		C511.875,98.187,510.085,99.975,507.875,99.975z"/>
	<path style="fill:#116FFF;" d="M507.875,435.893H3.999c-2.21,0-3.999-1.789-3.999-3.999V95.976c0-2.21,1.789-3.999,3.999-3.999
		h503.875c2.211,0,4,1.789,4,3.999v335.918C511.875,434.104,510.085,435.893,507.875,435.893z M7.998,427.895h495.878V99.975H7.998
		V427.895z"/>
	<path style="fill:#116FFF;" d="M255.937,403.901c-2.21,0-3.999-1.789-3.999-3.999V127.968c0-2.21,1.789-3.999,3.999-3.999
		c2.211,0,3.998,1.789,3.998,3.999v271.934C259.935,402.112,258.148,403.901,255.937,403.901z"/>
	<path style="fill:#116FFF;" d="M51.987,331.918H35.991c-2.21,0-3.999-1.788-3.999-3.999s1.789-3.999,3.999-3.999h15.996
		c2.21,0,3.999,1.788,3.999,3.999S54.198,331.918,51.987,331.918z"/>
	<path style="fill:#116FFF;" d="M107.974,331.918H91.978c-2.21,0-3.999-1.788-3.999-3.999s1.789-3.999,3.999-3.999h15.996
		c2.21,0,3.999,1.788,3.999,3.999S110.184,331.918,107.974,331.918z"/>
	<path style="fill:#116FFF;" d="M163.96,331.918h-15.996c-2.211,0-3.999-1.788-3.999-3.999s1.788-3.999,3.999-3.999h15.996
		c2.21,0,3.999,1.788,3.999,3.999S166.17,331.918,163.96,331.918z"/>
	<path style="fill:#116FFF;" d="M219.946,331.918H203.95c-2.211,0-3.999-1.788-3.999-3.999s1.788-3.999,3.999-3.999h15.996
		c2.21,0,3.999,1.788,3.999,3.999S222.156,331.918,219.946,331.918z"/>
	<path style="fill:#116FFF;" d="M35.991,331.918c-2.21,0-3.999-1.788-3.999-3.999V143.964c0-2.21,1.789-3.999,3.999-3.999
		s3.999,1.789,3.999,3.999v183.955C39.99,330.13,38.202,331.918,35.991,331.918z"/>
	<path style="fill:#116FFF;" d="M91.978,331.918H51.987c-2.21,0-3.999-1.788-3.999-3.999V215.947c0-2.21,1.789-3.999,3.999-3.999
		h39.99c2.21,0,3.999,1.789,3.999,3.999V327.92C95.977,330.13,94.187,331.918,91.978,331.918z M55.986,323.92h31.992V219.946H55.986
		V323.92z"/>
	<path style="fill:#116FFF;" d="M147.964,331.918h-39.99c-2.21,0-3.999-1.788-3.999-3.999V167.958c0-2.21,1.789-3.999,3.999-3.999
		h39.99c2.21,0,3.999,1.789,3.999,3.999v159.961C151.963,330.13,150.174,331.918,147.964,331.918z M111.973,323.92h31.992V171.958
		h-31.992C111.973,171.958,111.973,323.92,111.973,323.92z"/>
	<path style="fill:#116FFF;" d="M203.95,331.918h-39.99c-2.211,0-3.999-1.788-3.999-3.999v-55.986c0-2.211,1.788-3.999,3.999-3.999
		h39.99c2.21,0,3.999,1.788,3.999,3.999v55.986C207.949,330.13,206.16,331.918,203.95,331.918z M167.959,323.92h31.992v-47.988
		h-31.992V323.92z"/>
	<path style="fill:#116FFF;" d="M207.949,371.909H47.988c-2.21,0-3.999-1.789-3.999-3.999c0-2.211,1.789-3.999,3.999-3.999h159.961
		c2.21,0,3.999,1.788,3.999,3.999C211.948,370.12,210.159,371.909,207.949,371.909z"/>
	<path style="fill:#116FFF;" d="M175.957,387.905H79.98c-2.21,0-3.999-1.789-3.999-3.999c0-2.211,1.789-3.999,3.999-3.999h95.977
		c2.21,0,3.999,1.788,3.999,3.999C179.956,386.116,178.167,387.905,175.957,387.905z"/>
	<path style="fill:#116FFF;" d="M463.886,371.909H303.925c-2.211,0-4-1.789-4-3.999c0-2.211,1.789-3.999,4-3.999h159.961
		c2.211,0,3.998,1.788,3.998,3.999C467.884,370.12,466.097,371.909,463.886,371.909z"/>
	<path style="fill:#116FFF;" d="M431.894,387.905h-95.977c-2.211,0-4-1.789-4-3.999c0-2.211,1.789-3.999,4-3.999h95.977
		c2.211,0,3.998,1.788,3.998,3.999C435.892,386.116,434.105,387.905,431.894,387.905z"/>
	<path style="fill:#116FFF;" d="M383.906,331.918c-52.924,0-95.977-43.052-95.977-95.977c0-52.921,43.053-95.977,95.977-95.977
		c7.615,0,15.191,0.898,22.533,2.671c5.795,1.371,11.678,3.422,17.457,6.093c5.225,2.327,10.311,5.237,15.043,8.619
		c4.451,3.073,8.779,6.701,12.816,10.743c4.062,4.058,7.686,8.389,10.779,12.872c3.188,4.456,6.092,9.493,8.584,14.918
		c2.664,5.757,4.709,11.692,6.1,17.641c1.68,6.814,2.586,13.875,2.664,20.932v1.488c0,8.795-1.156,17.391-3.43,25.549
		c-4.412,15.926-12.949,30.555-24.697,42.302C433.621,321.929,409.525,331.918,383.906,331.918z M383.906,147.963
		c-48.512,0-87.979,39.467-87.979,87.979s39.467,87.979,87.979,87.979c23.479,0,45.566-9.154,62.195-25.782
		c10.771-10.771,18.605-24.189,22.65-38.788c2.078-7.467,3.133-15.34,3.133-23.408v-1.441c-0.07-6.396-0.898-12.844-2.445-19.112
		c-1.273-5.471-3.148-10.888-5.584-16.156c-2.289-4.976-4.93-9.571-7.865-13.668c-2.859-4.144-6.17-8.1-9.889-11.817
		c-3.701-3.702-7.654-7.019-11.762-9.857c-4.352-3.104-8.959-5.744-13.748-7.873c-5.35-2.472-10.715-4.351-16.012-5.604
		C397.839,148.788,390.888,147.963,383.906,147.963z"/>
	<path style="fill:#116FFF;" d="M383.906,275.932c-22.049,0-39.99-17.94-39.99-39.99c0-22.049,17.941-39.99,39.99-39.99
		c4.404,0,8.709,0.688,12.785,2.043c5.977,2.085,11.318,5.439,15.504,9.716c4.227,4.136,7.576,9.482,9.639,15.402
		c1.375,4.112,2.062,8.412,2.062,12.829c0,3.987-0.594,7.982-1.773,11.872c-1.969,6.283-5.42,11.95-9.99,16.418
		C404.705,271.761,394.662,275.932,383.906,275.932z M383.906,203.95c-17.645,0-31.992,14.352-31.992,31.992
		s14.348,31.992,31.992,31.992c8.6,0,16.621-3.327,22.588-9.364c3.672-3.602,6.42-8.12,7.982-13.11
		c0.938-3.098,1.422-6.315,1.422-9.518c0-3.503-0.562-7.045-1.641-10.247c-1.633-4.714-4.311-8.994-7.717-12.329
		c-3.391-3.46-7.67-6.14-12.434-7.799C390.904,204.5,387.451,203.95,383.906,203.95z"/>
	<path style="fill:#116FFF;" d="M383.906,203.989c-2.211,0-4-1.75-4-3.96v-56.064c0-2.21,1.789-3.999,4-3.999
		s3.998,1.789,3.998,3.999v55.986C387.904,202.162,386.117,203.989,383.906,203.989z"/>
	<path style="fill:#116FFF;" d="M448.929,304.964c-1.023,0-2.047-0.391-2.828-1.172L406.509,264.2c-1.562-1.559-1.562-4.089,0-5.65
		c1.562-1.562,4.094-1.562,5.654,0l39.592,39.588c1.562,1.562,1.562,4.092,0,5.654C450.974,304.574,449.953,304.964,448.929,304.964
		z"/>
	<path style="fill:#116FFF;" d="M383.984,171.958c-1.023,0-2.055-0.391-2.836-1.176c-1.555-1.565-1.555-4.097,0.016-5.654
		l21.52-21.437c1.561-1.562,4.092-1.562,5.654,0.008c1.555,1.566,1.555,4.097-0.016,5.655l-21.518,21.436
		C386.023,171.571,385.007,171.958,383.984,171.958z"/>
	<path style="fill:#116FFF;" d="M383.984,194.592c-1.023,0-2.047-0.39-2.828-1.171c-1.562-1.562-1.562-4.093,0-5.655l37.842-37.838
		c1.562-1.578,4.297-1.754,5.844-0.203c1.562,1.554,1.764,3.882,0.219,5.447l-38.248,38.249
		C386.031,194.203,385.007,194.592,383.984,194.592z"/>
	<path style="fill:#116FFF;" d="M398.253,204.618l-5.678-5.64l0.086-0.082l41.123-41.122c1.561-1.562,4.092-1.562,5.654,0
		c1.562,1.562,1.562,4.093,0,5.654L398.253,204.618z"/>
	<path style="fill:#116FFF;" d="M409.337,214.505c-1.023,0-2.047-0.391-2.828-1.171c-1.562-1.562-1.562-4.093,0-5.655l39.592-39.588
		c1.562-1.562,4.094-1.562,5.654,0c1.562,1.562,1.562,4.093,0,5.655l-39.592,39.588
		C411.382,214.115,410.361,214.505,409.337,214.505z"/>
	<path style="fill:#116FFF;" d="M417.999,228.444c-1.023,0-2.039-0.379-2.812-1.152c-1.562-1.562-1.602-4.054-0.039-5.615
		l41.271-41.268c1.547-1.547,4.084-1.605,5.662-0.074c1.562,1.527,1.648,3.991,0.141,5.577l-41.342,41.341
		C420.091,228.045,419.037,228.444,417.999,228.444z"/>
	<path style="fill:#116FFF;" d="M418.375,250.657c-1.023,0-2.047-0.391-2.828-1.171c-1.562-1.562-1.562-4.093,0-5.655l49.113-49.105
		c1.562-1.562,4.092-1.562,5.654,0c1.562,1.562,1.562,4.093,0,5.655l-49.113,49.105
		C420.419,250.266,419.396,250.657,418.375,250.657z"/>
	<path style="fill:#116FFF;" d="M417.976,273.699c-1.023,0-2.047-0.391-2.828-1.172c-1.562-1.57-1.562-4.101,0-5.663l55.346-55.268
		c1.562-1.554,4.092-1.558,5.654,0.004c1.562,1.566,1.562,4.097,0,5.659l-55.346,55.268
		C420.021,273.308,418.998,273.699,417.976,273.699z"/>
	<path style="fill:#116FFF;" d="M429.175,285.211c-1.023,0-2.047-0.391-2.826-1.172c-1.562-1.562-1.562-4.093,0-5.655l46.707-46.711
		c1.561-1.562,4.092-1.562,5.654,0s1.562,4.093,0,5.655l-46.707,46.711C431.222,284.821,430.199,285.211,429.175,285.211z"/>
	<path style="fill:#116FFF;" d="M440.455,296.49c-1.023,0-2.047-0.391-2.828-1.172c-1.562-1.562-1.562-4.093,0-5.654l32.07-32.074
		c1.562-1.562,4.094-1.562,5.654,0c1.562,1.562,1.562,4.093,0,5.654l-32.07,32.074C442.499,296.099,441.478,296.49,440.455,296.49z"
		/>
	<path style="fill:#116FFF;" d="M91.978,235.942H51.987c-2.21,0-3.999-1.789-3.999-3.999s1.789-3.999,3.999-3.999h39.99
		c2.21,0,3.999,1.789,3.999,3.999S94.187,235.942,91.978,235.942z"/>
	<path style="fill:#116FFF;" d="M91.978,291.928H51.987c-2.21,0-3.999-1.788-3.999-3.999s1.789-3.999,3.999-3.999h39.99
		c2.21,0,3.999,1.788,3.999,3.999S94.187,291.928,91.978,291.928z"/>
	<path style="fill:#116FFF;" d="M147.964,204.028h-39.99c-2.21,0-3.999-1.789-3.999-3.999s1.789-3.999,3.999-3.999h39.99
		c2.21,0,3.999,1.789,3.999,3.999S150.174,204.028,147.964,204.028z"/>
	<path style="fill:#116FFF;" d="M147.964,259.936h-39.99c-2.21,0-3.999-1.788-3.999-3.999c0-2.21,1.789-3.999,3.999-3.999h39.99
		c2.21,0,3.999,1.789,3.999,3.999C151.963,258.148,150.174,259.936,147.964,259.936z"/>
	<path style="fill:#116FFF;" d="M203.95,291.928h-39.99c-2.211,0-3.999-1.788-3.999-3.999s1.788-3.999,3.999-3.999h39.99
		c2.21,0,3.999,1.788,3.999,3.999S206.16,291.928,203.95,291.928z"/>
	<path style="fill:#116FFF;" d="M203.95,307.924h-39.99c-2.211,0-3.999-1.788-3.999-3.999s1.788-3.999,3.999-3.999h39.99
		c2.21,0,3.999,1.788,3.999,3.999S206.16,307.924,203.95,307.924z"/>
</g>
<g>
</g>
<g>
</g>
<g>
</g>
<g>
</g>
<g>
</g>
<g>
</g>
<g>
</g>
<g>
</g>
<g>
</g>
<g>
</g>
<g>
</g>
<g>
</g>
<g>
</g>
<g>
</g>
<g>
</g>
</svg>
