<?xml version="1.0" encoding="iso-8859-1"?>
<!-- Generator: Adobe Illustrator 19.0.0, SVG Export Plug-In . SVG Version: 6.00 Build 0)  -->
<svg version="1.1" id="Capa_1" xmlns="http://www.w3.org/2000/svg" xmlns:xlink="http://www.w3.org/1999/xlink" x="0px" y="0px"
	 viewBox="0 0 511.875 511.875" style="enable-background:new 0 0 511.875 511.875;" xml:space="preserve">
<path style="fill:#D7E9FF;" d="M507.875,371.917v7.998H371.908v-7.998c0-4.397,3.602-7.998,7.998-7.998h119.971
	C504.275,363.918,507.875,367.518,507.875,371.917z"/>
<path style="fill:#FFFFFF;" d="M431.894,459.895v-23.994h-43.99v23.994H431.894z M491.878,419.905v-23.994H387.904v23.994H491.878z
	 M507.875,379.914v95.977H371.908v-95.977H507.875z"/>
<g>
	<rect x="387.907" y="435.897" style="fill:#94C1FF;" width="43.99" height="23.994"/>
	<rect x="387.907" y="395.908" style="fill:#94C1FF;" width="103.97" height="23.994"/>
</g>
<path style="fill:#D7E9FF;" d="M323.919,403.909H187.954v-7.998c0-4.397,3.601-7.998,7.998-7.998h119.969
	c4.398,0,7.998,3.601,7.998,7.998V403.909z"/>
<rect x="203.947" y="459.897" style="fill:#94C1FF;" width="43.989" height="23.994"/>
<path style="fill:#FFFFFF;" d="M247.939,483.888v-23.994H203.95v23.994H247.939z M307.923,443.898v-23.994H203.95v23.994H307.923z
	 M323.919,499.884H187.954v-95.977h135.965V499.884z"/>
<rect x="203.947" y="419.908" style="fill:#94C1FF;" width="103.97" height="23.994"/>
<path style="fill:#D7E9FF;" d="M11.997,363.918h119.971c4.397,0,7.998,3.601,7.998,7.998v7.998H3.999v-7.998
	C3.999,367.518,7.6,363.918,11.997,363.918z"/>
<path style="fill:#FFFFFF;" d="M63.984,459.895v-23.994H19.995v23.994H63.984z M123.97,419.905v-23.994H19.995v23.994H123.97z
	 M139.966,475.891H3.999v-95.977h135.967L139.966,475.891L139.966,475.891z"/>
<g style="opacity:0.5;">
	<path style="fill:#FFFFFF;" d="M203.95,459.895v-15.996v-23.994v-15.996v-7.998c0-4.397,3.601-7.998,7.998-7.998h-15.996
		c-4.397,0-7.998,3.601-7.998,7.998v7.998v95.977h15.996v-15.996V459.895z"/>
</g>
<g>
	<rect x="19.997" y="435.897" style="fill:#94C1FF;" width="43.989" height="23.994"/>
	<rect x="19.997" y="395.908" style="fill:#94C1FF;" width="103.97" height="23.994"/>
</g>
<path style="fill:#FFFFFF;" d="M171.958,179.959c4.397,0,7.998,3.601,7.998,7.998s-3.601,7.998-7.998,7.998
	s-7.998-3.601-7.998-7.998S167.561,179.959,171.958,179.959z"/>
<g>
	<polygon style="fill:#D7E9FF;" points="187.954,211.951 199.791,229.627 195.952,235.945 171.958,235.945 	"/>
	<polygon style="fill:#D7E9FF;" points="199.791,229.627 219.946,195.955 243.94,235.945 195.952,235.945 	"/>
</g>
<g>
	<path style="fill:#94C1FF;" d="M171.958,195.955c4.397,0,7.998-3.601,7.998-7.998s-3.601-7.998-7.998-7.998
		s-7.998,3.601-7.998,7.998S167.561,195.955,171.958,195.955z M187.954,211.951l-15.996,23.994h-23.994v-71.982h103.974v71.982
		h-7.998l-23.994-39.99l-20.155,33.672L187.954,211.951z"/>
	<rect x="147.967" y="99.977" style="fill:#94C1FF;" width="223.94" height="47.988"/>
</g>
<path style="fill:#FFFFFF;" d="M131.968,83.983h255.936v167.958H131.968V83.983z M251.938,163.963H147.964v71.982h23.994h23.994
	h47.988h7.998L251.938,163.963L251.938,163.963z M371.908,99.979H147.964v47.988h223.944V99.979z"/>
<path style="fill:#D7E9FF;" d="M139.966,67.987h239.94c4.398,0,7.998,3.601,7.998,7.998v7.998H131.968v-7.998
	C131.968,71.587,135.568,67.987,139.966,67.987z"/>
<polygon style="fill:#94C1FF;" points="287.929,27.997 287.929,51.991 231.943,51.991 231.943,27.997 247.939,35.995 259.699,12 
	271.933,35.995 "/>
<polygon style="fill:#D7E9FF;" points="231.943,27.997 231.943,51.991 239.941,51.991 239.941,31.996 "/>
<polygon style="fill:#5C9EFF;" points="279.931,31.996 279.931,51.991 287.929,51.991 287.929,27.997 "/>
<path style="fill:#FFFFFF;" d="M147.964,67.987h-7.998c-4.397,0-7.998,3.601-7.998,7.998v7.998h7.998v-7.998
	C139.966,71.587,143.566,67.987,147.964,67.987z"/>
<path style="fill:#94C1FF;" d="M371.908,67.987h7.998c4.398,0,7.998,3.601,7.998,7.998v7.998h-7.998v-7.998
	C379.906,71.587,376.306,67.987,371.908,67.987z"/>
<g>
	<rect x="147.967" y="99.977" style="fill:#D7E9FF;" width="7.998" height="47.988"/>
	<rect x="19.997" y="395.908" style="fill:#D7E9FF;" width="7.998" height="23.994"/>
</g>
<g>
	<rect x="115.967" y="395.908" style="fill:#5C9EFF;" width="7.998" height="23.994"/>
	<rect x="55.987" y="435.897" style="fill:#5C9EFF;" width="7.998" height="23.994"/>
</g>
<g>
	<rect x="19.997" y="435.897" style="fill:#D7E9FF;" width="7.998" height="23.994"/>
	<rect x="147.967" y="163.967" style="fill:#D7E9FF;" width="7.998" height="71.982"/>
</g>
<g>
	<rect x="363.907" y="99.977" style="fill:#5C9EFF;" width="7.998" height="47.988"/>
	<rect x="243.937" y="163.967" style="fill:#5C9EFF;" width="7.998" height="71.982"/>
</g>
<path style="fill:#94C1FF;" d="M131.968,363.918h-7.998c4.397,0,7.998,3.601,7.998,7.998v7.998h7.998v-7.998
	C139.966,367.518,136.365,363.918,131.968,363.918z"/>
<path style="fill:#FFFFFF;" d="M11.997,363.918h7.998c-4.397,0-7.998,3.601-7.998,7.998v7.998H3.999v-7.998
	C3.999,367.518,7.6,363.918,11.997,363.918z"/>
<rect x="387.907" y="395.908" style="fill:#D7E9FF;" width="7.998" height="23.994"/>
<g>
	<rect x="483.877" y="395.908" style="fill:#5C9EFF;" width="7.998" height="23.994"/>
	<rect x="423.897" y="435.897" style="fill:#5C9EFF;" width="7.998" height="23.994"/>
</g>
<rect x="387.907" y="435.897" style="fill:#D7E9FF;" width="7.998" height="23.994"/>
<path style="fill:#94C1FF;" d="M499.876,363.918h-7.998c4.398,0,7.998,3.601,7.998,7.998v7.998h7.998v-7.998
	C507.875,367.518,504.275,363.918,499.876,363.918z"/>
<path style="fill:#FFFFFF;" d="M379.906,363.918h7.998c-4.396,0-7.998,3.601-7.998,7.998v7.998h-7.998v-7.998
	C371.908,367.518,375.509,363.918,379.906,363.918z"/>
<rect x="203.947" y="419.908" style="fill:#D7E9FF;" width="7.998" height="23.994"/>
<g>
	<rect x="299.927" y="419.908" style="fill:#5C9EFF;" width="7.998" height="23.994"/>
	<rect x="239.937" y="459.897" style="fill:#5C9EFF;" width="7.998" height="23.994"/>
</g>
<rect x="203.947" y="459.897" style="fill:#D7E9FF;" width="7.998" height="23.994"/>
<path style="fill:#94C1FF;" d="M315.921,387.913h-7.998c4.398,0,7.998,3.601,7.998,7.998v7.998h7.998v-7.998
	C323.919,391.513,320.32,387.913,315.921,387.913z"/>
<path style="fill:#FFFFFF;" d="M195.952,387.913h7.998c-4.397,0-7.998,3.601-7.998,7.998v7.998h-7.998v-7.998
	C187.954,391.513,191.555,387.913,195.952,387.913z"/>
<g>
	<path style="fill:#116FFF;" d="M164.198,79.984c-2.207,0-4.038-1.789-4.038-3.999s1.749-3.999,3.96-3.999h0.078
		c2.21,0,3.999,1.789,3.999,3.999S166.408,79.984,164.198,79.984z"/>
	<path style="fill:#116FFF;" d="M148.202,79.984c-2.207,0-4.038-1.789-4.038-3.999s1.749-3.999,3.96-3.999h0.078
		c2.21,0,3.999,1.789,3.999,3.999S150.412,79.984,148.202,79.984z"/>
	<path style="fill:#116FFF;" d="M180.194,79.984c-2.207,0-4.038-1.789-4.038-3.999s1.749-3.999,3.96-3.999h0.078
		c2.21,0,3.999,1.789,3.999,3.999S182.404,79.984,180.194,79.984z"/>
	<path style="fill:#116FFF;" d="M24.232,375.915c-2.207,0-4.038-1.789-4.038-3.999s1.75-3.999,3.96-3.999h0.078
		c2.21,0,3.999,1.789,3.999,3.999S26.443,375.915,24.232,375.915z"/>
	<path style="fill:#116FFF;" d="M40.229,375.915c-2.207,0-4.038-1.789-4.038-3.999s1.75-3.999,3.96-3.999h0.078
		c2.21,0,3.999,1.789,3.999,3.999S42.438,375.915,40.229,375.915z"/>
	<path style="fill:#116FFF;" d="M56.225,375.915c-2.207,0-4.038-1.789-4.038-3.999s1.75-3.999,3.96-3.999h0.078
		c2.21,0,3.999,1.789,3.999,3.999S58.435,375.915,56.225,375.915z"/>
	<path style="fill:#116FFF;" d="M392.138,375.915c-2.203,0-4.031-1.789-4.031-3.999s1.75-3.999,3.953-3.999h0.078
		c2.219,0,3.998,1.789,3.998,3.999S394.357,375.915,392.138,375.915z"/>
	<path style="fill:#116FFF;" d="M408.134,375.915c-2.203,0-4.031-1.789-4.031-3.999s1.75-3.999,3.953-3.999h0.078
		c2.219,0,3.998,1.789,3.998,3.999S410.353,375.915,408.134,375.915z"/>
	<path style="fill:#116FFF;" d="M424.13,375.915c-2.203,0-4.031-1.789-4.031-3.999s1.75-3.999,3.953-3.999h0.078
		c2.219,0,3.998,1.789,3.998,3.999S426.349,375.915,424.13,375.915z"/>
	<path style="fill:#116FFF;" d="M208.187,399.909c-2.207,0-4.038-1.789-4.038-3.999s1.749-3.999,3.96-3.999h0.078
		c2.21,0,3.999,1.789,3.999,3.999S210.397,399.909,208.187,399.909z"/>
	<path style="fill:#116FFF;" d="M224.183,399.909c-2.207,0-4.038-1.789-4.038-3.999s1.75-3.999,3.96-3.999h0.078
		c2.21,0,3.999,1.789,3.999,3.999S226.394,399.909,224.183,399.909z"/>
	<path style="fill:#116FFF;" d="M240.179,399.909c-2.207,0-4.038-1.789-4.038-3.999s1.75-3.999,3.96-3.999h0.078
		c2.21,0,3.999,1.789,3.999,3.999S242.39,399.909,240.179,399.909z"/>
	<path style="fill:#116FFF;" d="M387.904,87.982c-2.209,0-3.998-1.789-3.998-3.999v-7.998c0-2.207-1.797-3.999-4-3.999h-239.94
		c-2.207,0-3.999,1.792-3.999,3.999v7.998c0,2.21-1.789,3.999-3.999,3.999c-2.211,0-3.999-1.789-3.999-3.999v-7.998
		c0-6.616,5.381-11.997,11.997-11.997h239.94c6.617,0,11.998,5.381,11.998,11.997v7.998
		C391.904,86.193,390.115,87.982,387.904,87.982z"/>
	<path style="fill:#116FFF;" d="M387.904,255.94H131.968c-2.211,0-3.999-1.789-3.999-3.999V83.983c0-2.21,1.788-3.999,3.999-3.999
		h255.936c2.211,0,4,1.789,4,3.999v167.958C391.904,254.152,390.115,255.94,387.904,255.94z M135.967,247.942h247.939V87.982
		H135.967V247.942z"/>
	<path style="fill:#116FFF;" d="M371.908,151.966H147.964c-2.211,0-3.999-1.788-3.999-3.999V99.979c0-2.21,1.788-3.999,3.999-3.999
		h223.944c2.211,0,4,1.789,4,3.999v47.988C375.908,150.178,374.119,151.966,371.908,151.966z M151.963,143.968H367.91v-39.99
		H151.963V143.968z"/>
	<path style="fill:#116FFF;" d="M347.914,127.972H171.958c-2.211,0-3.999-1.788-3.999-3.999c0-2.21,1.788-3.999,3.999-3.999h175.956
		c2.211,0,4,1.789,4,3.999C351.914,126.184,350.125,127.972,347.914,127.972z"/>
	<path style="fill:#116FFF;" d="M371.908,175.96H267.933c-2.209,0-3.998-1.788-3.998-3.999c0-2.21,1.789-3.999,3.998-3.999h103.975
		c2.211,0,4,1.789,4,3.999C375.908,174.172,374.119,175.96,371.908,175.96z"/>
	<path style="fill:#116FFF;" d="M371.908,191.956H267.933c-2.209,0-3.998-1.788-3.998-3.999c0-2.21,1.789-3.999,3.998-3.999h103.975
		c2.211,0,4,1.789,4,3.999C375.908,190.168,374.119,191.956,371.908,191.956z"/>
	<path style="fill:#116FFF;" d="M371.908,207.952H267.933c-2.209,0-3.998-1.789-3.998-3.999c0-2.21,1.789-3.999,3.998-3.999h103.975
		c2.211,0,4,1.789,4,3.999C375.908,206.164,374.119,207.952,371.908,207.952z"/>
	<path style="fill:#116FFF;" d="M319.921,223.948h-51.988c-2.209,0-3.998-1.789-3.998-3.999c0-2.21,1.789-3.999,3.998-3.999h51.988
		c2.211,0,3.998,1.789,3.998,3.999C323.919,222.16,322.132,223.948,319.921,223.948z"/>
	<path style="fill:#116FFF;" d="M251.938,239.944H147.964c-2.211,0-3.999-1.789-3.999-3.999v-71.982c0-2.21,1.788-3.999,3.999-3.999
		h103.974c2.21,0,3.999,1.789,3.999,3.999v71.982C255.937,238.156,254.148,239.944,251.938,239.944z M151.963,231.946h95.976
		v-63.984h-95.976V231.946z"/>
	<path style="fill:#116FFF;" d="M243.944,239.944c-1.359,0-2.683-0.691-3.433-1.941l-20.561-34.269l-20.581,34.289
		c-1.152,1.882-3.608,2.488-5.495,1.339c-1.886-1.144-2.487-3.604-1.339-5.494l23.979-39.967c0.722-1.207,2.027-1.945,3.429-1.945
		c0.004,0,0.004,0,0.004,0c1.405,0,2.706,0.738,3.429,1.941l23.994,39.99c1.136,1.894,0.523,4.35-1.371,5.486
		C245.354,239.761,244.643,239.944,243.944,239.944z"/>
	<path style="fill:#116FFF;" d="M171.954,239.944c-0.762,0-1.531-0.219-2.215-0.672c-1.839-1.226-2.335-3.706-1.109-5.545
		l15.996-23.994c0.742-1.113,1.988-1.781,3.324-1.781h0.004c1.335,0,2.581,0.664,3.323,1.773l11.837,17.675l-3.003,2.707
		l-3.328,2.218l-8.822-13.177l-12.677,19.015C174.516,239.319,173.247,239.944,171.954,239.944z"/>
	<path style="fill:#116FFF;" d="M171.958,199.954c-6.616,0-11.997-5.381-11.997-11.997c0-6.615,5.381-11.997,11.997-11.997
		c6.615,0,11.997,5.382,11.997,11.997C183.955,194.573,178.573,199.954,171.958,199.954z M171.958,183.958
		c-2.207,0-3.999,1.793-3.999,3.999c0,2.207,1.792,3.999,3.999,3.999c2.206,0,3.999-1.792,3.999-3.999
		C175.957,185.751,174.164,183.958,171.958,183.958z"/>
	<path style="fill:#116FFF;" d="M139.966,383.914c-2.211,0-3.999-1.789-3.999-3.999v-7.998c0-2.21-1.793-3.999-3.999-3.999H11.997
		c-2.207,0-3.999,1.789-3.999,3.999v7.998c0,2.21-1.789,3.999-3.999,3.999S0,382.125,0,379.915v-7.998
		c0-6.616,5.382-11.997,11.997-11.997h119.971c6.615,0,11.997,5.381,11.997,11.997v7.998
		C143.965,382.125,142.176,383.914,139.966,383.914z"/>
	<path style="fill:#116FFF;" d="M139.966,479.889H3.999c-2.21,0-3.999-1.789-3.999-3.999v-95.977c0-2.21,1.789-3.999,3.999-3.999
		h135.967c2.21,0,3.999,1.789,3.999,3.999v95.977C143.965,478.1,142.176,479.889,139.966,479.889z M7.998,471.892h127.969v-87.979
		H7.998V471.892z"/>
	<path style="fill:#116FFF;" d="M123.97,423.904H19.995c-2.21,0-3.999-1.789-3.999-3.999v-23.994c0-2.21,1.789-3.999,3.999-3.999
		H123.97c2.21,0,3.999,1.789,3.999,3.999v23.994C127.969,422.115,126.18,423.904,123.97,423.904z M23.994,415.905h95.977v-15.996
		H23.994V415.905z"/>
	<path style="fill:#116FFF;" d="M63.984,463.893H19.995c-2.21,0-3.999-1.789-3.999-3.999v-23.994c0-2.211,1.789-3.999,3.999-3.999
		h43.989c2.21,0,3.999,1.788,3.999,3.999v23.994C67.983,462.104,66.194,463.893,63.984,463.893z M23.994,455.896h35.991V439.9
		H23.994V455.896z"/>
	<path style="fill:#116FFF;" d="M123.97,439.9H79.98c-2.21,0-3.999-1.789-3.999-3.999c0-2.211,1.789-3.999,3.999-3.999h43.989
		c2.21,0,3.999,1.788,3.999,3.999C127.969,438.111,126.18,439.9,123.97,439.9z"/>
	<path style="fill:#116FFF;" d="M123.97,455.896H79.98c-2.21,0-3.999-1.789-3.999-3.999c0-2.211,1.789-3.999,3.999-3.999h43.989
		c2.21,0,3.999,1.788,3.999,3.999C127.969,454.107,126.18,455.896,123.97,455.896z"/>
	<path style="fill:#116FFF;" d="M507.875,383.914c-2.209,0-3.998-1.789-3.998-3.999v-7.998c0-2.21-1.797-3.999-4-3.999H379.906
		c-2.201,0-3.998,1.789-3.998,3.999v7.998c0,2.21-1.789,3.999-4,3.999c-2.209,0-3.998-1.789-3.998-3.999v-7.998
		c0-6.616,5.381-11.997,11.996-11.997h119.971c6.615,0,11.998,5.381,11.998,11.997v7.998
		C511.875,382.125,510.085,383.914,507.875,383.914z"/>
	<path style="fill:#116FFF;" d="M507.875,479.889H371.908c-2.209,0-3.998-1.789-3.998-3.999v-95.977c0-2.21,1.789-3.999,3.998-3.999
		h135.967c2.211,0,4,1.789,4,3.999v95.977C511.875,478.1,510.085,479.889,507.875,479.889z M375.908,471.892h127.969v-87.979
		H375.908V471.892z"/>
	<path style="fill:#116FFF;" d="M491.878,423.904H387.904c-2.209,0-3.998-1.789-3.998-3.999v-23.994c0-2.21,1.789-3.999,3.998-3.999
		h103.975c2.211,0,4,1.789,4,3.999v23.994C495.878,422.115,494.089,423.904,491.878,423.904z M391.904,415.905h95.977v-15.996
		h-95.977V415.905z"/>
	<path style="fill:#116FFF;" d="M431.894,463.893h-43.99c-2.209,0-3.998-1.789-3.998-3.999v-23.994c0-2.211,1.789-3.999,3.998-3.999
		h43.99c2.211,0,3.998,1.788,3.998,3.999v23.994C435.892,462.104,434.105,463.893,431.894,463.893z M391.904,455.896h35.99V439.9
		h-35.99V455.896z"/>
	<path style="fill:#116FFF;" d="M491.878,439.9H447.89c-2.211,0-4-1.789-4-3.999c0-2.211,1.789-3.999,4-3.999h43.988
		c2.211,0,4,1.788,4,3.999C495.878,438.111,494.089,439.9,491.878,439.9z"/>
	<path style="fill:#116FFF;" d="M491.878,455.896H447.89c-2.211,0-4-1.789-4-3.999c0-2.211,1.789-3.999,4-3.999h43.988
		c2.211,0,4,1.788,4,3.999C495.878,454.107,494.089,455.896,491.878,455.896z"/>
	<path style="fill:#116FFF;" d="M323.919,407.908c-2.209,0-3.998-1.789-3.998-3.999v-7.998c0-2.21-1.797-3.999-4-3.999H195.952
		c-2.207,0-3.999,1.789-3.999,3.999v7.998c0,2.21-1.789,3.999-3.999,3.999c-2.211,0-3.999-1.789-3.999-3.999v-7.998
		c0-6.616,5.381-11.997,11.997-11.997h119.969c6.617,0,11.998,5.381,11.998,11.997v7.998
		C327.919,406.118,326.13,407.908,323.919,407.908z"/>
	<path style="fill:#116FFF;" d="M323.919,503.884H187.954c-2.211,0-3.999-1.789-3.999-3.999v-95.977c0-2.21,1.788-3.999,3.999-3.999
		h135.965c2.211,0,4,1.789,4,3.999v95.977C327.919,502.095,326.13,503.884,323.919,503.884z M191.953,495.885h127.968v-87.978
		H191.953V495.885z"/>
	<path style="fill:#116FFF;" d="M307.923,447.897H203.95c-2.211,0-3.999-1.789-3.999-3.999v-23.994c0-2.211,1.788-3.999,3.999-3.999
		h103.973c2.211,0,4,1.788,4,3.999v23.994C311.923,446.108,310.134,447.897,307.923,447.897z M207.949,439.9h95.976v-15.996h-95.976
		L207.949,439.9L207.949,439.9z"/>
	<path style="fill:#116FFF;" d="M247.939,487.888H203.95c-2.211,0-3.999-1.789-3.999-3.999v-23.994c0-2.211,1.788-3.999,3.999-3.999
		h43.989c2.21,0,3.999,1.788,3.999,3.999v23.994C251.938,486.099,250.149,487.888,247.939,487.888z M207.949,479.889h35.991v-15.996
		h-35.991V479.889z"/>
	<path style="fill:#116FFF;" d="M307.923,463.893h-43.988c-2.211,0-4-1.789-4-3.999c0-2.211,1.789-3.999,4-3.999h43.988
		c2.211,0,4,1.788,4,3.999C311.923,462.104,310.134,463.893,307.923,463.893z"/>
	<path style="fill:#116FFF;" d="M307.923,479.889h-43.988c-2.211,0-4-1.789-4-3.999c0-2.211,1.789-3.999,4-3.999h43.988
		c2.211,0,4,1.788,4,3.999C311.923,478.1,310.134,479.889,307.923,479.889z"/>
	<path style="fill:#116FFF;" d="M287.929,55.99h-55.986c-2.211,0-3.999-1.789-3.999-3.999V27.997c0-1.386,0.718-2.671,1.897-3.402
		c1.176-0.73,2.648-0.789,3.89-0.175l12.392,6.194l9.982-20.374c0.668-1.359,2.046-2.226,3.562-2.238
		c1.814-0.125,2.9,0.832,3.592,2.183l10.439,20.46l12.441-6.225c1.242-0.617,2.711-0.562,3.891,0.175
		c1.18,0.73,1.896,2.016,1.896,3.402v23.994C291.927,54.201,290.14,55.99,287.929,55.99z M235.942,47.992h47.987V34.468
		l-10.207,5.104c-1.961,0.976-4.352,0.199-5.352-1.761l-8.604-16.867l-8.235,16.812c-0.473,0.957-1.305,1.687-2.312,2.027
		c-1.015,0.34-2.108,0.266-3.069-0.211l-10.208-5.104V47.992z"/>
	<path style="fill:#116FFF;" d="M259.935,351.921c-2.209,0-3.998-1.789-3.998-3.999v-55.986c0-2.21,1.789-3.999,3.998-3.999
		c2.211,0,4,1.789,4,3.999v55.986C263.935,350.132,262.146,351.921,259.935,351.921z"/>
	<path style="fill:#116FFF;" d="M259.935,351.921c-1.021,0-2.045-0.391-2.826-1.172c-1.562-1.562-1.562-4.093,0-5.654l7.998-7.998
		c1.562-1.562,4.092-1.562,5.654,0c1.562,1.562,1.562,4.092,0,5.654l-7.998,7.998C261.982,351.53,260.958,351.921,259.935,351.921z"
		/>
	<path style="fill:#116FFF;" d="M259.935,351.921c-1.021,0-2.045-0.391-2.826-1.172l-7.999-7.998c-1.562-1.562-1.562-4.093,0-5.654
		c1.562-1.562,4.093-1.562,5.655,0l7.998,7.998c1.562,1.562,1.562,4.092,0,5.654C261.982,351.53,260.958,351.921,259.935,351.921z"
		/>
	<path style="fill:#116FFF;" d="M83.979,327.927c-1.023,0-2.046-0.391-2.828-1.172c-1.562-1.562-1.562-4.093,0-5.654l39.99-39.99
		c1.562-1.562,4.093-1.562,5.655,0s1.562,4.093,0,5.654l-39.99,39.99C86.026,327.536,85.003,327.927,83.979,327.927z"/>
	<path style="fill:#116FFF;" d="M95.258,327.927H83.979c-2.21,0-3.999-1.789-3.999-3.999s1.789-3.999,3.999-3.999h11.278
		c2.21,0,3.999,1.789,3.999,3.999S97.468,327.927,95.258,327.927z"/>
	<path style="fill:#116FFF;" d="M83.979,327.927c-2.21,0-3.999-1.789-3.999-3.999V312.65c0-2.211,1.789-3.999,3.999-3.999
		c2.21,0,3.999,1.788,3.999,3.999v11.278C87.979,326.138,86.189,327.927,83.979,327.927z"/>
	<path style="fill:#116FFF;" d="M435.892,327.927c-1.023,0-2.045-0.391-2.826-1.172l-39.99-39.99c-1.562-1.562-1.562-4.093,0-5.654
		c1.562-1.562,4.092-1.562,5.654,0l39.99,39.99c1.562,1.562,1.562,4.093,0,5.654C437.939,327.536,436.916,327.927,435.892,327.927z"
		/>
	<path style="fill:#116FFF;" d="M435.892,327.927h-11.277c-2.211,0-4-1.789-4-3.999s1.789-3.999,4-3.999h11.277
		c2.211,0,4,1.789,4,3.999S438.103,327.927,435.892,327.927z"/>
	<path style="fill:#116FFF;" d="M435.892,327.927c-2.209,0-3.998-1.789-3.998-3.999V312.65c0-2.211,1.789-3.999,3.998-3.999
		c2.211,0,4,1.788,4,3.999v11.278C439.892,326.138,438.103,327.927,435.892,327.927z"/>
</g>
<g>
</g>
<g>
</g>
<g>
</g>
<g>
</g>
<g>
</g>
<g>
</g>
<g>
</g>
<g>
</g>
<g>
</g>
<g>
</g>
<g>
</g>
<g>
</g>
<g>
</g>
<g>
</g>
<g>
</g>
</svg>
