<?xml version="1.0" encoding="utf-8"?>
<!-- Generator: Adobe Illustrator 22.0.0, SVG Export Plug-In . SVG Version: 6.00 Build 0)  -->
<svg version="1.1" id="Layer_1" xmlns="http://www.w3.org/2000/svg" xmlns:xlink="http://www.w3.org/1999/xlink" x="0px" y="0px"
	 viewBox="0 0 595.3 115" style="enable-background:new 0 0 595.3 841.9;" xml:space="preserve">
<style type="text/css">
	.st0{clip-path:url(#SVGID_2_);}
	.st1{clip-path:url(#SVGID_4_);fill:#0B5BA6;}
	.st2{filter:url(#Adobe_OpacityMaskFilter);}
	.st3{clip-path:url(#SVGID_6_);fill:url(#SVGID_8_);}
	.st4{clip-path:url(#SVGID_6_);mask:url(#SVGID_7_);fill:url(#SVGID_9_);}
	.st5{clip-path:url(#SVGID_11_);fill:#FFFFFF;}
	.st6{clip-path:url(#SVGID_11_);fill-rule:evenodd;clip-rule:evenodd;fill:#FFFFFF;}
	.st7{clip-path:url(#SVGID_11_);fill-rule:evenodd;clip-rule:evenodd;fill:#EAEAEA;}
	.st8{clip-path:url(#SVGID_11_);fill-rule:evenodd;clip-rule:evenodd;fill:#0B5BA6;}
	.st9{fill:#0B5BA6;}
	.st10{font-family:'Swiss721BT-BoldCondensed';}
	.st11{font-size:19.2484px;}
	.st12{clip-path:url(#SVGID_13_);fill:#0B5BA6;}
	.st13{opacity:0.22;clip-path:url(#SVGID_13_);}
	.st14{clip-path:url(#SVGID_15_);}
	.st15{filter:url(#Adobe_OpacityMaskFilter_1_);}
	.st16{clip-path:url(#SVGID_17_);fill:url(#SVGID_19_);}
	.st17{clip-path:url(#SVGID_17_);mask:url(#SVGID_18_);fill:url(#SVGID_20_);}
	.st18{clip-path:url(#SVGID_15_);fill:#0B5BA6;}
	.st19{clip-path:url(#SVGID_15_);fill-rule:evenodd;clip-rule:evenodd;fill:#0B5BA6;}
	.st20{opacity:0.48;clip-path:url(#SVGID_15_);}
	.st21{clip-path:url(#SVGID_22_);fill-rule:evenodd;clip-rule:evenodd;fill:#FFFFFF;}
	.st22{clip-path:url(#SVGID_24_);fill-rule:evenodd;clip-rule:evenodd;fill:#FFFFFF;}
	.st23{clip-path:url(#SVGID_26_);fill-rule:evenodd;clip-rule:evenodd;fill:#FFFFFF;}
	.st24{clip-path:url(#SVGID_28_);fill-rule:evenodd;clip-rule:evenodd;fill:#FFFFFF;}
	.st25{clip-path:url(#SVGID_30_);fill-rule:evenodd;clip-rule:evenodd;fill:#FFFFFF;}
	.st26{clip-path:url(#SVGID_32_);fill-rule:evenodd;clip-rule:evenodd;fill:#FFFFFF;}
	.st27{clip-path:url(#SVGID_34_);fill-rule:evenodd;clip-rule:evenodd;fill:#FFFFFF;}
	.st28{clip-path:url(#SVGID_15_);fill-rule:evenodd;clip-rule:evenodd;fill:#FFFFFF;}
	.st29{clip-path:url(#SVGID_36_);fill-rule:evenodd;clip-rule:evenodd;fill:#FFFFFF;}
	.st30{clip-path:url(#SVGID_38_);fill-rule:evenodd;clip-rule:evenodd;fill:#FFFFFF;}
	.st31{fill:#FFFFFF;}
	.st32{font-family:'Swiss721BT-RomanCondensed';}
	.st33{font-size:14.457px;}
	.st34{clip-path:url(#SVGID_40_);fill:#0B5BA6;}
	.st35{clip-path:url(#SVGID_40_);fill:#FFFFFF;}
</style>
<g>
	<defs>
		<rect id="SVGID_1_" width="595.3" height="841.9"/>
	</defs>
	<clipPath id="SVGID_2_">
		<use xlink:href="#SVGID_1_"  style="overflow:visible;"/>
	</clipPath>
	<g class="st0">
		<defs>
			<rect id="SVGID_3_" width="595.3" height="841.9"/>
		</defs>
		<clipPath id="SVGID_4_">
			<use xlink:href="#SVGID_3_"  style="overflow:visible;"/>
		</clipPath>
		<path class="st1" d="M220.2,105.7H0V0h255.9v70C255.9,89.7,239.9,105.7,220.2,105.7"/>
	</g>
	<g class="st0">
		<defs>
			<path id="SVGID_5_" d="M70.4,47.5c-3.1,1.1-6.1,2.1-9.2,3c15.9,2.2,38.8,4.7,61.6,4.7c14.7,0,27.7-1,38.6-3.1
				c-8-4.8-24-12.7-43.9-12.7C94,39.4,81.5,43.7,70.4,47.5"/>
		</defs>
		<clipPath id="SVGID_6_">
			<use xlink:href="#SVGID_5_"  style="overflow:visible;"/>
		</clipPath>
		<defs>
			<filter id="Adobe_OpacityMaskFilter" filterUnits="userSpaceOnUse" x="61.2" y="39.4" width="100.2" height="15.8">
				<feColorMatrix  type="matrix" values="1 0 0 0 0  0 1 0 0 0  0 0 1 0 0  0 0 0 1 0"/>
			</filter>
		</defs>
		<mask maskUnits="userSpaceOnUse" x="61.2" y="39.4" width="100.2" height="15.8" id="SVGID_7_">
			<g class="st2">
				
					<linearGradient id="SVGID_8_" gradientUnits="userSpaceOnUse" x1="0" y1="841.89" x2="1" y2="841.89" gradientTransform="matrix(0 -27.9913 27.9913 0 -23454.2617 56.8249)">
					<stop  offset="0" style="stop-color:#000000"/>
					<stop  offset="0.9949" style="stop-color:#FFFFFF"/>
					<stop  offset="1" style="stop-color:#FFFFFF"/>
				</linearGradient>
				<rect x="61.2" y="39.4" class="st3" width="100.2" height="15.8"/>
			</g>
		</mask>
		
			<linearGradient id="SVGID_9_" gradientUnits="userSpaceOnUse" x1="0" y1="841.89" x2="1" y2="841.89" gradientTransform="matrix(0 -27.9913 27.9913 0 -23454.2637 56.8248)">
			<stop  offset="0" style="stop-color:#FFFFFF"/>
			<stop  offset="0.9949" style="stop-color:#0A5BA6"/>
			<stop  offset="1" style="stop-color:#0A5BA6"/>
		</linearGradient>
		<rect x="61.2" y="39.4" class="st4" width="100.2" height="15.8"/>
	</g>
	<g class="st0">
		<defs>
			<rect id="SVGID_10_" width="595.3" height="841.9"/>
		</defs>
		<clipPath id="SVGID_11_">
			<use xlink:href="#SVGID_10_"  style="overflow:visible;"/>
		</clipPath>
		<path class="st5" d="M144,50l-6.5-4.6c-0.7-0.5-1.8,0-2.2,0.9l-1.6,3.5c-1.3,0-2.6-0.1-3.9-0.1c3.7,0.4,6.9,2.3,8.6,4.9
			c0.4,0,0.9,0,1.3,0c1.8-2.2,5-3.6,8.5-3.6c2.6,0,4.9,0.7,6.7,2c0.9-1.1,2.1-2,3.4-2.7C152.6,50.1,146.3,50,144,50"/>
		<path class="st5" d="M227.6,80.1c0,0-3.1-23.1-14.5-24.9c-11.4-1.8-39.5-3.6-48.6-9.5c-6.2-4-23.6-15-50.7-14.9
			c-6.2,0-12.3,0.3-19.2,1.4c0.5,1.6,0.2,1.3,2.1,1.8l0.7,0.2l-0.7,0.2c-2,0.6-1.6,0.2-2.2,2.2l-0.2,0.7L94,36.7
			c-0.6-2-0.2-1.6-2.2-2.2l-0.7-0.2l0.7-0.2c1.9-0.6,1.6-0.3,2.1-1.7c-7.2,1.2-15.3,3.4-25.6,7.3c-12.6,4.8-23.1,7.1-28.7,7.7
			c-0.2,4.6,4.4,4.7,13.3,2.4c17.5-4.6,28.7-12.9,64.8-12.9c19.5,0,35.4,7.2,44.2,12.3c0.9-0.2,1.8-0.3,2.7-0.3
			c4.6,0,8.6,2.2,10.5,5.3c2.5,0.1,4.6,0.2,6.3,0.4l-0.2-0.1C196.7,55.8,222.6,60.9,227.6,80.1"/>
		<path class="st5" d="M106.6,51.2c1.3-1,3-1.6,4.8-1.6c3,0,5.6,1.7,7,4.2c2-2.4,5.4-3.9,9.3-4c-9-0.5-19.4-1.6-28.5-3.8
			C99.3,45.8,100.4,48.7,106.6,51.2"/>
		<path class="st6" d="M64.1,24c1.3,4.1,0.4,3.2,4.5,4.5l1.4,0.4l-1.4,0.4c-4.1,1.3-3.2,0.4-4.5,4.5l-0.4,1.4l-0.4-1.4
			c-1.3-4.1-0.4-3.2-4.5-4.5l-1.4-0.4l1.4-0.4c4.1-1.3,3.2-0.4,4.5-4.5l0.4-1.4L64.1,24z"/>
		<path class="st6" d="M194.1,30.1c2.1,7,0.6,5.4,7.6,7.6l2.4,0.7l-2.4,0.7c-7,2.1-5.4,0.6-7.6,7.6l-0.7,2.4l-0.7-2.4
			c-2.1-7-0.6-5.4-7.6-7.6l-2.4-0.7l2.4-0.7c7-2.1,5.4-0.6,7.6-7.6l0.7-2.4L194.1,30.1z"/>
		<path class="st6" d="M174.3,20.5c1.3,4.2,0.4,3.3,4.5,4.5l1.4,0.4l-1.4,0.4c-4.2,1.3-3.3,0.4-4.5,4.5l-0.4,1.4l-0.4-1.4
			c-1.3-4.2-0.4-3.3-4.5-4.5l-1.4-0.4l1.4-0.4c4.2-1.3,3.3-0.4,4.5-4.5l0.4-1.4L174.3,20.5z"/>
		<path class="st6" d="M172.9,39.5c0.6,2.1,0.2,1.6,2.3,2.3L176,42l-0.7,0.2c-2.1,0.6-1.6,0.2-2.3,2.3l-0.2,0.7l-0.2-0.7
			c-0.6-2.1-0.2-1.6-2.3-2.3l-0.7-0.2l0.7-0.2c2.1-0.6,1.6-0.2,2.3-2.3l0.2-0.7L172.9,39.5z"/>
		<path class="st5" d="M220.9,66.6h-10.6l6.2,8.6c0,0,8.8-6.6,11.1,4.9C227.6,80.1,224.5,67.7,220.9,66.6"/>
		<path class="st7" d="M132,21.1c3.8,0,6.8,3.1,6.8,6.8c0,3.8-3.1,6.8-6.8,6.8c-3.8,0-6.8-3.1-6.8-6.8
			C125.2,24.2,128.2,21.1,132,21.1"/>
		<path class="st8" d="M132,22c3.3,0,6,2.7,6,6s-2.7,6-6,6l-0.3,0c2.8-0.2,5.1-2.5,5.1-5.3c0-3-2.4-5.4-5.4-5.4
			c-2.9,0-5.2,2.2-5.3,5.1l0-0.3C126.1,24.7,128.7,22,132,22"/>
		<path class="st7" d="M134.2,59.5c-0.9,3.4-4.4,5.4-7.8,4.4c-3.4-0.9-5.4-4.4-4.4-7.8c0.9-3.4,4.4-5.4,7.8-4.4
			C133.1,52.6,135.1,56.1,134.2,59.5"/>
		<path class="st8" d="M133.4,59.3c-0.8,3-3.9,4.7-6.8,3.9c-3-0.8-4.7-3.9-3.9-6.8l0.1-0.3c-0.6,2.6,1,5.2,3.5,5.9
			c2.7,0.7,5.4-0.8,6.1-3.5c0.7-2.6-0.7-5.2-3.2-6.1l0.3,0.1C132.5,53.3,134.2,56.4,133.4,59.3"/>
		<path class="st7" d="M147.4,62.6c-2.6-0.3-4.5-2.7-4.2-5.3c0.3-2.6,2.7-4.5,5.3-4.2c2.6,0.3,4.5,2.7,4.2,5.3
			C152.4,61,150,62.9,147.4,62.6"/>
		<path class="st8" d="M147.5,62c-2.3-0.3-3.9-2.4-3.6-4.7c0.3-2.3,2.4-3.9,4.7-3.6l0.2,0c-2-0.1-3.7,1.3-4,3.3
			c-0.3,2.1,1.2,3.9,3.3,4.2c2,0.2,3.8-1.1,4.1-3.1l0,0.2C151.9,60.6,149.8,62.3,147.5,62"/>
		<path class="st7" d="M114,29.6c0,1.6-1.2,2.9-2.8,2.9c-1.6,0-2.9-1.2-2.9-2.8c0-1.6,1.2-2.9,2.8-2.9C112.6,26.7,113.9,28,114,29.6
			"/>
		<path class="st8" d="M113.6,29.6c0,1.4-1.1,2.5-2.4,2.5c-1.4,0-2.5-1.1-2.5-2.4l0-0.1c0.1,1.2,1.1,2.1,2.3,2.1
			c1.2,0,2.2-1,2.2-2.3c0-1.2-1-2.2-2.1-2.2l0.1,0C112.4,27.1,113.6,28.2,113.6,29.6"/>
		<path class="st7" d="M82.6,28.3c2.8,0,5.1,2.3,5.1,5.1c0,2.8-2.3,5.1-5.1,5.1c-2.8,0-5.1-2.3-5.1-5.1
			C77.5,30.6,79.8,28.3,82.6,28.3"/>
		<path class="st8" d="M82.6,29c2.4,0,4.4,2,4.4,4.4c0,2.4-2,4.4-4.4,4.4l-0.2,0c2.1-0.1,3.8-1.8,3.8-4c0-2.2-1.8-4-4-4
			c-2.1,0-3.9,1.7-4,3.8l0-0.2C78.1,31,80.1,29,82.6,29"/>
		<path class="st7" d="M27.5,46.6c2.7,0,4.9,2.1,5,4.8c0,2.7-2.1,4.9-4.8,5c-2.7,0-4.9-2.1-5-4.8C22.6,48.9,24.8,46.7,27.5,46.6"/>
		<path class="st8" d="M27.5,47.3c2.4,0,4.3,1.8,4.3,4.2c0,2.4-1.8,4.3-4.2,4.3l-0.2,0c2-0.1,3.6-1.8,3.6-3.9c0-2.1-1.8-3.8-3.9-3.8
			c-2,0-3.7,1.7-3.8,3.7l0-0.2C23.2,49.2,25.1,47.3,27.5,47.3"/>
		<path class="st7" d="M30.3,58.4c-0.6-3.3,1.6-6.4,4.9-7c3.3-0.6,6.4,1.6,7,4.9c0.6,3.3-1.6,6.4-4.9,7C34,63.9,30.9,61.7,30.3,58.4
			"/>
		<path class="st8" d="M31.1,58.3c-0.5-2.9,1.4-5.6,4.3-6.1c2.9-0.5,5.6,1.4,6.1,4.3l0,0.3c-0.6-2.4-2.9-4-5.4-3.6
			c-2.6,0.5-4.3,2.9-3.8,5.5c0.4,2.5,2.7,4.2,5.2,3.9l-0.3,0.1C34.3,63,31.6,61.1,31.1,58.3"/>
		<path class="st6" d="M29,54.2c2.2-1.1,1.8-0.5,2.1-2.9l0.1-0.8l0.4,0.7c1.1,2.2,0.5,1.8,2.9,2.1l0.8,0.1l-0.7,0.4
			c-2.2,1.1-1.8,0.5-2.1,2.9l-0.1,0.8L32,56.8c-1.1-2.2-0.5-1.8-2.9-2.1l-0.8-0.1L29,54.2z"/>
		<path class="st6" d="M51.3,28.5c0.8,2.6,0.2,2,2.9,2.9l0.9,0.3l-0.9,0.3c-2.6,0.8-2,0.2-2.9,2.8l-0.3,0.9l-0.3-0.9
			c-0.8-2.6-0.2-2-2.9-2.8L47,31.6l0.9-0.3c2.6-0.8,2-0.2,2.9-2.9l0.3-0.9L51.3,28.5z"/>
		<path class="st6" d="M35.7,36.9c1.2,3.8,0.3,3,4.1,4.1l1.3,0.4l-1.3,0.4c-3.8,1.2-3,0.3-4.1,4.1l-0.4,1.3L34.9,46
			c-1.2-3.8-0.3-3-4.1-4.1l-1.3-0.4l1.3-0.4c3.8-1.2,3-0.3,4.1-4.1l0.4-1.3L35.7,36.9z"/>
		<path class="st7" d="M209.6,45.6c3.3,0,5.9,2.6,5.9,5.9c0,3.3-2.6,5.9-5.9,5.9c-3.3,0-5.9-2.6-5.9-5.9
			C203.7,48.3,206.3,45.6,209.6,45.6"/>
		<path class="st8" d="M209.6,46.4c2.8,0,5.1,2.3,5.1,5.1c0,2.8-2.3,5.1-5.1,5.1l-0.3,0c2.4-0.1,4.4-2.1,4.4-4.6
			c0-2.6-2.1-4.6-4.6-4.6c-2.5,0-4.5,1.9-4.6,4.4l0-0.3C204.4,48.7,206.7,46.4,209.6,46.4"/>
		<path class="st7" d="M110.6,61.1c-2.6-0.3-4.5-2.7-4.2-5.3c0.3-2.6,2.7-4.5,5.3-4.2c2.6,0.3,4.5,2.7,4.2,5.3
			C115.7,59.6,113.3,61.5,110.6,61.1"/>
		<path class="st8" d="M110.7,60.5c-2.3-0.3-3.9-2.4-3.6-4.7c0.3-2.3,2.4-3.9,4.7-3.6l0.2,0c-2-0.1-3.7,1.3-4,3.3
			c-0.3,2.1,1.2,3.9,3.3,4.2c2,0.2,3.8-1.1,4.1-3.1l0,0.2C115.1,59.2,113,60.8,110.7,60.5"/>
		<polygon class="st5" points="52,67.9 48.2,72.8 26.8,72.8 26.8,74.8 36.8,74.8 36.8,79.7 26.8,79.7 26.8,86.9 21,86.9 21,67.9 		
			"/>
		<path class="st5" d="M69.4,86.9h-8.5l-5.7-4.8H47v4.8h-5.9v-9.7h16.3c1,0,1.8-0.1,2.5-0.4c0.8-0.4,1.2-1,1.2-1.7
			c0-1.5-1.2-2.2-3.7-2.2H41.2l3.8-4.9h12c3,0,5.4,0.6,7.2,1.7c2.1,1.3,3.1,3.1,3.1,5.5c0,1.3-0.4,2.5-1.2,3.6
			c-0.8,1.1-2,1.9-3.5,2.5L69.4,86.9z"/>
		<polygon class="st5" points="90.9,82 87.2,86.9 70.4,86.9 70.4,67.9 90.9,67.9 87.2,72.8 76.3,72.8 76.3,74.8 90,74.8 86.2,79.7 
			76.3,79.7 76.3,82 		"/>
		<polygon class="st5" points="112.7,82 108.9,86.9 92.1,86.9 92.1,67.9 112.7,67.9 108.9,72.8 98,72.8 98,74.8 111.7,74.8 
			108,79.7 98,79.7 98,82 		"/>
		<path class="st5" d="M128.2,84.7l-1.8,2.4h-4.6c-0.8,0-1.5-0.1-2.2-0.4c-0.7-0.2-1.3-0.6-1.8-1c-0.5-0.4-0.9-0.9-1.2-1.5
			c-0.3-0.6-0.4-1.2-0.4-1.9c0-0.7,0.1-1.3,0.4-1.8c0.3-0.6,0.7-1,1.2-1.4c0.5-0.4,1.1-0.7,1.8-0.9c0.7-0.2,1.4-0.3,2.2-0.3h6.5
			l-1.8,2.4h-4.6c-0.4,0-0.7,0.1-1.1,0.2c-0.3,0.1-0.6,0.3-0.9,0.5c-0.2,0.2-0.4,0.4-0.6,0.7c-0.1,0.3-0.2,0.6-0.2,0.9
			c0,0.3,0.1,0.6,0.2,0.9c0.1,0.3,0.3,0.5,0.6,0.7c0.2,0.2,0.5,0.3,0.9,0.4c0.3,0.1,0.7,0.2,1.1,0.2H128.2z"/>
		<path class="st5" d="M133.1,87.1l1.7-2.4h2.3h0.9c0.3,0,0.6,0,0.8,0c-0.1-0.2-0.3-0.4-0.4-0.6c-0.2-0.3-0.3-0.5-0.5-0.7l-1.7-2.4
			l-4.3,6.1h-3.4l5.9-8.4c0.2-0.3,0.4-0.5,0.7-0.7c0.3-0.2,0.7-0.3,1.1-0.3c0.4,0,0.8,0.1,1.1,0.3c0.3,0.2,0.5,0.4,0.7,0.7l5.8,8.4
			H133.1z"/>
		<path class="st5" d="M158,87.1h-3.8l-2.1-2.4h-4.4v2.4h-2.9v-4.7h8c0.4,0,0.8-0.1,1.1-0.3c0.3-0.2,0.5-0.4,0.5-0.8
			c0-0.4-0.1-0.6-0.4-0.8c-0.3-0.2-0.7-0.3-1.2-0.3h-8l1.9-2.4h5.9c0.5,0,1.1,0,1.6,0.1c0.6,0.1,1.1,0.3,1.5,0.5
			c0.5,0.2,0.8,0.6,1.1,1c0.3,0.4,0.4,1,0.4,1.6c0,0.4-0.1,0.7-0.2,1c-0.1,0.3-0.3,0.6-0.5,0.9c-0.2,0.3-0.5,0.5-0.8,0.7
			c-0.3,0.2-0.6,0.3-1,0.4c0.2,0.1,0.3,0.3,0.5,0.5c0.2,0.2,0.5,0.4,0.8,0.8L158,87.1z"/>
		<path class="st5" d="M173.6,83.7c-0.2-0.4-0.4-0.7-0.5-0.9c-0.1-0.3-0.3-0.5-0.4-0.7c-0.1-0.2-0.2-0.4-0.3-0.6
			c-0.1-0.2-0.2-0.3-0.3-0.5c-0.1,0.2-0.2,0.3-0.2,0.5c-0.1,0.2-0.2,0.4-0.3,0.6c-0.1,0.2-0.2,0.5-0.4,0.7c-0.1,0.3-0.3,0.6-0.5,0.9
			l-1.5,2.6c-0.2,0.3-0.4,0.5-0.6,0.7c-0.3,0.2-0.6,0.3-0.9,0.3c-0.4,0-0.7-0.1-1-0.3c-0.3-0.2-0.5-0.5-0.6-1l-2.3-8.1h2.9l0.9,3.2
			c0.1,0.5,0.3,1,0.4,1.4s0.2,0.8,0.3,1.2c0.1-0.3,0.3-0.7,0.5-1.1c0.2-0.4,0.5-0.9,0.8-1.5l1.2-2.3c0.1-0.2,0.2-0.4,0.4-0.5
			c0.1-0.1,0.2-0.2,0.4-0.3c0.1-0.1,0.3-0.1,0.4-0.1c0.1,0,0.3,0,0.5,0c0.2,0,0.3,0,0.5,0c0.1,0,0.3,0.1,0.4,0.1
			c0.1,0.1,0.3,0.2,0.4,0.3c0.1,0.1,0.2,0.3,0.4,0.5l1.2,2.3c0.2,0.3,0.3,0.6,0.5,0.9c0.1,0.2,0.2,0.5,0.3,0.7
			c0.1,0.2,0.2,0.4,0.3,0.5c0.1,0.2,0.2,0.3,0.2,0.5c0.1-0.4,0.2-0.8,0.3-1.2c0.1-0.4,0.2-0.9,0.4-1.4l0.9-3.2h2.8l-2.4,8.1
			c-0.1,0.4-0.3,0.8-0.6,1c-0.3,0.2-0.6,0.3-1,0.3c-0.4,0-0.7-0.1-0.9-0.3c-0.3-0.2-0.5-0.4-0.6-0.7L173.6,83.7z"/>
		<path class="st5" d="M185.6,87.1l1.7-2.4h2.3h0.9c0.3,0,0.6,0,0.8,0c-0.1-0.2-0.3-0.4-0.4-0.6c-0.2-0.3-0.3-0.5-0.5-0.7l-1.7-2.4
			l-4.3,6.1H181l5.9-8.4c0.2-0.3,0.4-0.5,0.7-0.7c0.3-0.2,0.7-0.3,1.1-0.3c0.4,0,0.8,0.1,1.1,0.3c0.3,0.2,0.5,0.4,0.7,0.7l5.8,8.4
			H185.6z"/>
		<path class="st5" d="M206,81.5c1.1,0,2,0.2,2.6,0.6c0.6,0.4,0.9,1.1,0.9,1.9c0,0.5-0.1,0.9-0.2,1.3c-0.1,0.4-0.4,0.7-0.7,1
			c-0.3,0.3-0.7,0.5-1.2,0.6c-0.5,0.1-1.1,0.2-1.8,0.2h-8.6l1.8-2.4h7c0.3,0,0.6-0.1,0.7-0.2c0.2-0.1,0.2-0.3,0.2-0.5
			c0-0.2-0.1-0.4-0.2-0.5c-0.2-0.1-0.4-0.2-0.7-0.2h-5c-0.6,0-1.1-0.1-1.5-0.2c-0.4-0.1-0.8-0.3-1.1-0.5c-0.3-0.2-0.5-0.5-0.6-0.8
			c-0.1-0.3-0.2-0.7-0.2-1.1c0-0.4,0.1-0.8,0.2-1.2c0.2-0.4,0.4-0.7,0.7-0.9c0.3-0.2,0.7-0.4,1.2-0.6c0.5-0.1,1.1-0.2,1.8-0.2h8
			l-1.8,2.4H201c-0.3,0-0.6,0-0.7,0.1c-0.2,0.1-0.2,0.3-0.2,0.5c0,0.2,0.1,0.4,0.2,0.5c0.2,0.1,0.4,0.1,0.7,0.1H206z"/>
		<polygon class="st5" points="221.9,87.1 219.1,87.1 219.1,83.5 213.6,83.5 213.6,87.1 210.7,87.1 210.7,77.9 213.6,77.9 
			213.6,81.1 219.1,81.1 219.1,77.9 221.9,77.9 		"/>
	</g>
	<g class="st0">
		<text transform="matrix(1 0 0 1 306.0029 71.7885)" class="st9 st10 st11">1900 East Golf Road, Suite 950</text>
	</g>
	<g class="st0">
		<text transform="matrix(1 0 0 1 338.1094 96.1376)" class="st9 st10 st11">Schaumburg, IL 60173</text>
	</g>
	<g class="st0">
		<defs>
			<rect id="SVGID_12_" width="595.3" height="841.9"/>
		</defs>
		<clipPath id="SVGID_13_">
			<use xlink:href="#SVGID_12_"  style="overflow:visible;"/>
		</clipPath>
		<rect x="574.3" y="0" class="st12" width="21" height="105.7"/>
		<g class="st13">
			<g>
				<defs>
					<rect id="SVGID_14_" y="657.7" width="595.3" height="177.3"/>
				</defs>
				<clipPath id="SVGID_15_">
					<use xlink:href="#SVGID_14_"  style="overflow:visible;"/>
				</clipPath>
				<g class="st14">
					<defs>
						<path id="SVGID_16_" d="M275.7,716.8c57.7,0,104.2,22.9,127.4,36.9c-31.9,5.9-69.5,8.9-112.2,8.9
							c-66.2,0-132.6-7.2-178.9-13.7c9-2.6,17.8-5.6,26.8-8.7C170.8,729.2,207.2,716.8,275.7,716.8"/>
					</defs>
					<clipPath id="SVGID_17_">
						<use xlink:href="#SVGID_16_"  style="overflow:visible;"/>
					</clipPath>
					<defs>
						<filter id="Adobe_OpacityMaskFilter_1_" filterUnits="userSpaceOnUse" x="112" y="716.8" width="291.1" height="45.8">
							<feColorMatrix  type="matrix" values="1 0 0 0 0  0 1 0 0 0  0 0 1 0 0  0 0 0 1 0"/>
						</filter>
					</defs>
					<mask maskUnits="userSpaceOnUse" x="112" y="716.8" width="291.1" height="45.8" id="SVGID_18_">
						<g class="st15">
							
								<linearGradient id="SVGID_19_" gradientUnits="userSpaceOnUse" x1="0" y1="841.89" x2="1" y2="841.89" gradientTransform="matrix(0 -81.307 81.307 0 -68194 767.4008)">
								<stop  offset="0" style="stop-color:#000000"/>
								<stop  offset="0.9949" style="stop-color:#FFFFFF"/>
								<stop  offset="1" style="stop-color:#FFFFFF"/>
							</linearGradient>
							<rect x="112" y="716.8" class="st16" width="291.1" height="45.8"/>
						</g>
					</mask>
					
						<linearGradient id="SVGID_20_" gradientUnits="userSpaceOnUse" x1="0" y1="841.89" x2="1" y2="841.89" gradientTransform="matrix(0 -81.307 81.307 0 -68194 767.4008)">
						<stop  offset="0" style="stop-color:#FFFFFF"/>
						<stop  offset="0.9949" style="stop-color:#0A5BA6"/>
						<stop  offset="1" style="stop-color:#0A5BA6"/>
					</linearGradient>
					<rect x="112" y="716.8" class="st17" width="291.1" height="45.8"/>
				</g>
				<path class="st18" d="M352.6,747.6l-19-13.3c-1.9-1.3-5.3,0.1-6.5,2.7l-4.6,10.3c-3.7-0.1-7.4-0.2-11.3-0.4
					c10.9,1.3,20,6.7,24.9,14.2c1.3,0,2.5-0.1,3.8-0.1c5.3-6.3,14.4-10.5,24.7-10.5c7.4,0,14.2,2.2,19.4,5.7c2.6-3.1,6-5.8,10-7.8
					C377.5,748,359.3,747.5,352.6,747.6"/>
				<path class="st18" d="M595.3,835c0,0-9.1-67-42.2-72.2c-33.1-5.2-114.8-10.4-141.3-27.5c-18-11.6-68.5-43.5-147.2-43.3
					c-18,0.1-35.6,0.7-55.7,4c1.4,4.7,0.6,3.7,6.1,5.4l2,0.6l-2,0.6c-5.9,1.8-4.6,0.5-6.4,6.4l-0.6,2l-0.6-2
					c-1.8-5.9-0.5-4.6-6.4-6.4l-2-0.6l2-0.6c5.4-1.7,4.8-0.7,6-5c-20.9,3.5-44.6,9.9-74.2,21.2c-36.6,14-67.2,20.7-83.5,22.5
					c-0.7,13.4,12.8,13.7,38.5,7c51-13.4,83.5-37.6,188.1-37.6c56.8,0,102.9,21,128.4,35.7c2.6-0.5,5.2-0.8,8-0.8
					c13.5,0,25.1,6.3,30.4,15.4c7.1,0.2,13.3,0.5,18.2,1l-0.5-0.2C505.5,764.4,580.9,779.2,595.3,835"/>
				<path class="st18" d="M244,751c3.9-3,8.8-4.8,14.1-4.8c8.8,0,16.4,4.9,20.3,12.1c5.9-6.9,15.8-11.5,27.1-11.7
					c-26.3-1.4-56.3-4.5-82.9-11.1C222.5,735.5,225.7,743.8,244,751"/>
				<path class="st19" d="M120.5,672.1c3.7,11.9,1,9.3,13,13l4.1,1.3l-4.1,1.3c-11.9,3.7-9.3,1-13,13l-1.3,4.1l-1.3-4.1
					c-3.7-11.9-1-9.3-13-13l-4.1-1.3l4.1-1.3c11.9-3.7,9.3-1,13-13l1.3-4.1L120.5,672.1z"/>
				<path class="st19" d="M498.1,689.8c6.2,20.3,1.8,15.8,22,22l7,2.1l-7,2.1c-20.3,6.2-15.8,1.8-22,22l-2.1,7l-2.1-7
					c-6.2-20.3-1.8-15.8-22-22l-7-2.1l7-2.1c20.3-6.2,15.8-1.8,22-22l2.1-7L498.1,689.8z"/>
				<path class="st19" d="M440.6,661.8c3.7,12.1,1.1,9.5,13.2,13.2l4.2,1.3l-4.2,1.3c-12.1,3.7-9.5,1.1-13.2,13.2l-1.3,4.2l-1.3-4.2
					c-3.7-12.1-1.1-9.5-13.2-13.2l-4.2-1.3l4.2-1.3c12.1-3.7,9.5-1.1,13.2-13.2l1.3-4.2L440.6,661.8z"/>
				<path class="st19" d="M436.6,717.1c1.9,6.1,0.5,4.8,6.6,6.6l2.1,0.6l-2.1,0.6c-6.1,1.9-4.8,0.5-6.6,6.6l-0.6,2.1l-0.7-2.1
					c-1.9-6.1-0.5-4.8-6.6-6.6l-2.1-0.6l2.1-0.6c6.1-1.9,4.8-0.5,6.6-6.6l0.7-2.1L436.6,717.1z"/>
				<path class="st18" d="M575.9,795.8h-30.8l18,25.1c0,0,25.7-19,32.2,14.1C595.3,835,586.4,798.9,575.9,795.8"/>
				<path class="st19" d="M317.7,663.7c11,0,19.9,8.9,19.9,19.9c0,11-8.9,19.9-19.9,19.9c-11,0-19.9-8.9-19.9-19.9
					C297.8,672.6,306.7,663.7,317.7,663.7"/>
				<g class="st20">
					<g>
						<defs>
							<rect id="SVGID_21_" x="300.4" y="666.3" width="34.6" height="34.6"/>
						</defs>
						<clipPath id="SVGID_22_">
							<use xlink:href="#SVGID_21_"  style="overflow:visible;"/>
						</clipPath>
						<path class="st21" d="M317.7,666.3c9.6,0,17.3,7.8,17.3,17.3c0,9.6-7.8,17.3-17.3,17.3l-0.9,0c8.2-0.4,14.7-7.2,14.7-15.5
							c0-8.6-7-15.6-15.6-15.6c-8.3,0-15.1,6.5-15.5,14.7l0-0.9C300.4,674,308.2,666.3,317.7,666.3"/>
					</g>
				</g>
				<path class="st19" d="M324.1,775.3c-2.7,9.9-12.9,15.6-22.8,12.9c-9.9-2.7-15.6-12.9-12.9-22.8c2.7-9.9,12.9-15.6,22.8-12.9
					C321,755.2,326.8,765.4,324.1,775.3"/>
				<g class="st20">
					<g>
						<defs>
							<rect id="SVGID_23_" x="290.1" y="754.6" width="32.3" height="31.9"/>
						</defs>
						<clipPath id="SVGID_24_">
							<use xlink:href="#SVGID_23_"  style="overflow:visible;"/>
						</clipPath>
						<path class="st22" d="M321.7,774.6c-2.4,8.6-11.3,13.6-19.8,11.3c-8.6-2.4-13.6-11.3-11.3-19.8l0.2-0.8
							c-1.6,7.5,2.8,15,10.3,17c7.7,2.1,15.7-2.4,17.8-10.1c2.1-7.4-2.1-15.1-9.3-17.6l0.8,0.2C319.1,757.2,324.1,766.1,321.7,774.6
							"/>
					</g>
				</g>
				<path class="st19" d="M362.4,784.2c-7.6-0.9-13.1-7.9-12.1-15.5c0.9-7.6,7.9-13.1,15.5-12.1c7.6,0.9,13.1,7.9,12.1,15.5
					C377,779.7,370,785.1,362.4,784.2"/>
				<g class="st20">
					<g>
						<defs>
							<rect id="SVGID_25_" x="352" y="758.2" width="24.2" height="24.3"/>
						</defs>
						<clipPath id="SVGID_26_">
							<use xlink:href="#SVGID_25_"  style="overflow:visible;"/>
						</clipPath>
						<path class="st23" d="M362.6,782.4c-6.6-0.8-11.4-6.9-10.6-13.5c0.8-6.6,6.9-11.4,13.5-10.6l0.6,0.1
							c-5.7-0.4-10.8,3.8-11.5,9.5c-0.7,6,3.5,11.4,9.5,12.1c5.8,0.7,11-3.2,12.1-8.9l-0.1,0.6C375.3,778.5,369.3,783.2,362.6,782.4
							"/>
					</g>
				</g>
				<path class="st19" d="M265.3,688.3c0.1,4.6-3.6,8.3-8.2,8.4c-4.6,0.1-8.3-3.6-8.4-8.2c-0.1-4.6,3.6-8.3,8.2-8.4
					C261.4,680,265.2,683.7,265.3,688.3"/>
				<g class="st20">
					<g>
						<defs>
							<rect id="SVGID_27_" x="249.8" y="681.2" width="14.4" height="14.4"/>
						</defs>
						<clipPath id="SVGID_28_">
							<use xlink:href="#SVGID_27_"  style="overflow:visible;"/>
						</clipPath>
						<path class="st24" d="M264.2,688.3c0.1,4-3.1,7.3-7.1,7.3c-4,0.1-7.3-3.1-7.3-7.1l0-0.4c0.2,3.4,3.1,6.1,6.6,6
							c3.6-0.1,6.4-3,6.4-6.6c-0.1-3.5-2.8-6.2-6.2-6.4l0.4,0C260.9,681.1,264.1,684.3,264.2,688.3"/>
					</g>
				</g>
				<path class="st19" d="M174.1,684.6c8.1,0,14.8,6.6,14.8,14.8c0,8.2-6.6,14.8-14.8,14.8c-8.2,0-14.8-6.6-14.8-14.8
					C159.3,691.2,165.9,684.6,174.1,684.6"/>
				<g class="st20">
					<g>
						<defs>
							<rect id="SVGID_29_" x="161.2" y="686.5" width="25.7" height="25.7"/>
						</defs>
						<clipPath id="SVGID_30_">
							<use xlink:href="#SVGID_29_"  style="overflow:visible;"/>
						</clipPath>
						<path class="st25" d="M174.1,686.5c7.1,0,12.8,5.8,12.8,12.8c0,7.1-5.8,12.9-12.8,12.9l-0.7,0c6.1-0.3,10.9-5.4,10.9-11.5
							c0-6.4-5.2-11.5-11.5-11.5c-6.2,0-11.2,4.8-11.5,10.9l0-0.7C161.2,692.3,167,686.5,174.1,686.5"/>
					</g>
				</g>
				<path class="st19" d="M14,737.8c7.8-0.1,14.3,6.2,14.4,14c0.1,7.8-6.2,14.3-14,14.4c-7.8,0.1-14.3-6.2-14.4-14
					C-0.1,744.4,6.2,737.9,14,737.8"/>
				<g class="st20">
					<g>
						<defs>
							<rect id="SVGID_31_" x="1.8" y="739.6" width="24.7" height="24.7"/>
						</defs>
						<clipPath id="SVGID_32_">
							<use xlink:href="#SVGID_31_"  style="overflow:visible;"/>
						</clipPath>
						<path class="st26" d="M14,739.6c6.8-0.1,12.5,5.4,12.6,12.2c0.1,6.8-5.4,12.5-12.2,12.5l-0.6,0c5.8-0.4,10.4-5.3,10.3-11.2
							c-0.1-6.1-5.1-11-11.3-10.9c-5.9,0.1-10.7,4.8-10.9,10.7l0-0.7C1.7,745.4,7.2,739.7,14,739.6"/>
					</g>
				</g>
				<path class="st19" d="M22.2,772c-1.7-9.5,4.7-18.7,14.2-20.4c9.5-1.7,18.7,4.7,20.4,14.2c1.7,9.5-4.7,18.7-14.2,20.4
					C33.1,787.9,23.9,781.5,22.2,772"/>
				<g class="st20">
					<g>
						<defs>
							<rect id="SVGID_33_" x="24.2" y="753.6" width="30.5" height="30.6"/>
						</defs>
						<clipPath id="SVGID_34_">
							<use xlink:href="#SVGID_33_"  style="overflow:visible;"/>
						</clipPath>
						<path class="st27" d="M24.5,771.6c-1.5-8.3,4.1-16.2,12.4-17.7c8.3-1.5,16.2,4.1,17.7,12.4l0.1,0.8
							c-1.6-7.1-8.5-11.7-15.8-10.4c-7.5,1.3-12.4,8.5-11.1,15.9c1.3,7.2,8,12.1,15.2,11.2l-0.8,0.2C33.9,785.5,26,779.9,24.5,771.6
							"/>
					</g>
				</g>
				<path class="st28" d="M18.3,759.8c6.3-3.2,5.1-1.5,6-8.5l0.3-2.4l1.1,2.2c3.2,6.3,1.5,5.1,8.5,6l2.4,0.3l-2.2,1.1
					c-6.3,3.2-5.1,1.5-6,8.5l-0.3,2.4l-1.1-2.2c-3.2-6.3-1.5-5.1-8.5-6l-2.4-0.3L18.3,759.8z"/>
				<path class="st19" d="M83.4,685.2c2.3,7.6,0.7,5.9,8.3,8.3l2.6,0.8l-2.6,0.8c-7.6,2.3-5.9,0.7-8.3,8.3l-0.8,2.6l-0.8-2.6
					c-2.3-7.6-0.7-5.9-8.3-8.3l-2.6-0.8l2.6-0.8c7.6-2.3,5.9-0.7,8.3-8.3l0.8-2.6L83.4,685.2z"/>
				<path class="st19" d="M37.9,709.5c3.4,11.1,1,8.6,12,12l3.8,1.2l-3.8,1.2c-11.1,3.4-8.6,1-12,12l-1.2,3.8l-1.2-3.8
					c-3.4-11.1-1-8.6-12-12l-3.8-1.2l3.8-1.2c11.1-3.4,8.6-1,12-12l1.2-3.8L37.9,709.5z"/>
				<path class="st19" d="M543,734.9c9.5,0,17.2,7.7,17.2,17.2c0,9.5-7.7,17.2-17.2,17.2c-9.5,0-17.2-7.7-17.2-17.2
					C525.8,742.6,533.5,734.9,543,734.9"/>
				<g class="st20">
					<g>
						<defs>
							<rect id="SVGID_35_" x="528.1" y="737.1" width="29.9" height="29.9"/>
						</defs>
						<clipPath id="SVGID_36_">
							<use xlink:href="#SVGID_35_"  style="overflow:visible;"/>
						</clipPath>
						<path class="st29" d="M543,737.1c8.2,0,14.9,6.7,14.9,14.9c0,8.3-6.7,14.9-14.9,14.9l-0.8,0c7.1-0.4,12.7-6.2,12.7-13.4
							c0-7.4-6-13.4-13.4-13.4c-7.2,0-13,5.6-13.4,12.7l0-0.8C528.1,743.8,534.8,737.1,543,737.1"/>
					</g>
				</g>
				<path class="st19" d="M255.6,779.9c-7.6-0.9-13.1-7.9-12.1-15.5c0.9-7.6,7.9-13.1,15.5-12.1c7.6,0.9,13.1,7.9,12.1,15.5
					C270.2,775.4,263.3,780.9,255.6,779.9"/>
				<g class="st20">
					<g>
						<defs>
							<rect id="SVGID_37_" x="245.2" y="754" width="24.2" height="24.3"/>
						</defs>
						<clipPath id="SVGID_38_">
							<use xlink:href="#SVGID_37_"  style="overflow:visible;"/>
						</clipPath>
						<path class="st30" d="M255.8,778.1c-6.6-0.8-11.4-6.9-10.6-13.5c0.8-6.6,6.9-11.4,13.5-10.6l0.6,0.1
							c-5.7-0.4-10.8,3.8-11.5,9.5c-0.7,6,3.5,11.4,9.5,12.1c5.8,0.7,11-3.2,12.1-8.9l-0.1,0.6C268.5,774.2,262.5,779,255.8,778.1"
							/>
					</g>
				</g>
			</g>
		</g>
		<rect y="785" class="st12" width="595.3" height="38.9"/>
	</g>
	<g class="st0">
		<text transform="matrix(1 0 0 1 19.9229 817.431)" class="st31 st32 st33">847.592.5400</text>
	</g>
	<g class="st0">
		<text transform="matrix(1 0 0 1 217.5791 817.431)" class="st31 st32 st33">info@lifetimefreecarwash.com</text>
	</g>
	<g class="st0">
		<text transform="matrix(1 0 0 1 408.541 817.431)" class="st31 st32 st33">www.lifetimefreecarwash.com</text>
	</g>
	<g class="st0">
		<text transform="matrix(1 0 0 1 119.8931 817.431)" class="st31 st32 st33">847.592.5401</text>
	</g>
	<g class="st0">
		<defs>
			<rect id="SVGID_39_" width="595.3" height="841.9"/>
		</defs>
		<clipPath id="SVGID_40_">
			<use xlink:href="#SVGID_39_"  style="overflow:visible;"/>
		</clipPath>
		<path class="st34" d="M72.9,785.3c0,6.8-5.5,12.3-12.3,12.3s-12.3-5.5-12.3-12.3c0-6.8,5.5-12.3,12.3-12.3S72.9,778.5,72.9,785.3"
			/>
		<path class="st35" d="M72.9,785.3c0.1,1.6-0.2,3.3-0.7,4.8c-0.6,1.5-1.5,3-2.6,4.2c-2.3,2.4-5.6,3.8-9,3.8c-3.4,0-6.7-1.4-9-3.8
			c-1.1-1.2-2-2.6-2.6-4.2c-0.6-1.5-0.8-3.2-0.7-4.8c0.2,3.2,1.6,6.3,3.9,8.4c2.3,2.2,5.3,3.4,8.4,3.4c3.1,0,6.2-1.2,8.4-3.4
			C71.3,791.6,72.7,788.5,72.9,785.3"/>
		<path class="st34" d="M169.3,785.3c0,6.8-5.5,12.3-12.3,12.3s-12.3-5.5-12.3-12.3c0-6.8,5.5-12.3,12.3-12.3
			S169.3,778.5,169.3,785.3"/>
		<path class="st35" d="M169.3,785.3c0.1,1.6-0.2,3.3-0.7,4.8c-0.6,1.5-1.5,3-2.6,4.2c-2.3,2.4-5.6,3.8-9,3.8c-3.4,0-6.7-1.4-9-3.8
			c-1.1-1.2-2-2.6-2.6-4.2c-0.6-1.5-0.8-3.2-0.7-4.8c0.2,3.2,1.6,6.3,3.9,8.4c2.3,2.2,5.3,3.4,8.4,3.4c3.1,0,6.2-1.2,8.4-3.4
			C167.7,791.6,169.1,788.5,169.3,785.3"/>
		<path class="st34" d="M317.7,785.3c0,6.8-5.5,12.3-12.3,12.3c-6.8,0-12.3-5.5-12.3-12.3c0-6.8,5.5-12.3,12.3-12.3
			C312.2,773,317.7,778.5,317.7,785.3"/>
		<path class="st35" d="M317.7,785.3c0.1,1.6-0.2,3.3-0.7,4.8c-0.6,1.5-1.5,3-2.6,4.2c-2.3,2.4-5.6,3.8-9,3.8c-3.4,0-6.7-1.4-9-3.8
			c-1.1-1.2-2-2.6-2.6-4.2c-0.6-1.5-0.8-3.2-0.7-4.8c0.2,3.2,1.6,6.3,3.9,8.4c2.3,2.2,5.3,3.4,8.4,3.4c3.1,0,6.2-1.2,8.4-3.4
			C316.1,791.6,317.5,788.5,317.7,785.3"/>
		<path class="st34" d="M511.4,785.3c0,6.8-5.5,12.3-12.3,12.3c-6.8,0-12.3-5.5-12.3-12.3c0-6.8,5.5-12.3,12.3-12.3
			C505.9,773,511.4,778.5,511.4,785.3"/>
		<path class="st35" d="M511.4,785.3c0.1,1.6-0.2,3.3-0.7,4.8c-0.6,1.5-1.5,3-2.6,4.2c-2.3,2.4-5.6,3.8-9,3.8c-3.4,0-6.7-1.4-9-3.8
			c-1.1-1.2-2-2.6-2.6-4.2c-0.6-1.5-0.8-3.2-0.7-4.8c0.2,3.2,1.6,6.3,3.9,8.4c2.3,2.2,5.3,3.4,8.4,3.4c3.1,0,6.2-1.2,8.4-3.4
			C509.8,791.6,511.2,788.5,511.4,785.3"/>
		<path class="st35" d="M63.6,788.5c-0.5-0.5-1.1-0.5-1.5,0c-0.4,0.4-0.7,0.7-1.1,1.1c-0.1,0.1-0.2,0.1-0.3,0.1
			c-0.2-0.1-0.5-0.2-0.7-0.4c-1-0.7-1.9-1.5-2.7-2.4c-0.4-0.5-0.7-1-1-1.5c0-0.1,0-0.2,0.1-0.3c0.4-0.3,0.7-0.7,1.1-1.1
			c0.5-0.5,0.5-1.1,0-1.6c-0.3-0.3-0.6-0.6-0.8-0.8c-0.3-0.3-0.6-0.6-0.9-0.9c-0.5-0.5-1.1-0.5-1.5,0c-0.4,0.4-0.7,0.7-1.1,1.1
			c-0.3,0.3-0.5,0.7-0.6,1.2c-0.1,0.8,0.1,1.5,0.4,2.2c0.5,1.4,1.3,2.7,2.3,3.9c1.3,1.6,2.9,2.8,4.8,3.7c0.8,0.4,1.7,0.7,2.6,0.8
			c0.6,0,1.2-0.1,1.7-0.6c0.3-0.3,0.7-0.7,1-1c0.5-0.5,0.5-1.1,0-1.6C64.8,789.7,64.2,789.1,63.6,788.5"/>
		<path class="st35" d="M63,786.1l1.1-0.2c-0.2-1-0.7-2-1.4-2.7c-0.8-0.8-1.8-1.3-2.8-1.4l-0.2,1.1c0.8,0.1,1.6,0.5,2.2,1.1
			C62.5,784.6,62.9,785.3,63,786.1"/>
		<path class="st35" d="M64.8,781.3c-1.3-1.3-2.9-2.1-4.7-2.4l-0.2,1.1c1.6,0.2,3,0.9,4.1,2c1.1,1.1,1.7,2.4,2,3.8l1.1-0.2
			C66.8,784,66,782.5,64.8,781.3"/>
		<path class="st35" d="M153,790.4v3h8v-3v-2h-8V790.4z M154,789.4h6v1h-6V789.4z M154,791.4h6v1h-6V791.4z"/>
		<polygon class="st35" points="161,781.4 161,778.4 153,778.4 153,781.4 153,783.4 161,783.4 		"/>
		<path class="st35" d="M163,781.4h-1v2v1h-10v-1v-2h-1c-1,0-2,1-2,2v5c0,1,1,2,2,2h1v-2v-1h10v1v2h1c1,0,2-1,2-2v-5
			C165,782.4,164,781.4,163,781.4"/>
		<path class="st35" d="M312.6,789.2c0,0.3-0.1,0.6-0.2,0.9l-4.7-5.2l4.6-4c0.2,0.3,0.3,0.6,0.3,1V789.2z M305.2,785.8l6.4-5.6
			c-0.3-0.1-0.6-0.2-0.9-0.2h-11.1c-0.3,0-0.6,0.1-0.9,0.2L305.2,785.8z M307,785.4l-1.5,1.3c-0.1,0.1-0.2,0.1-0.3,0.1
			c-0.1,0-0.2,0-0.3-0.1l-1.5-1.3l-4.7,5.3c0.3,0.2,0.6,0.3,1,0.3h11.1c0.4,0,0.7-0.1,1-0.3L307,785.4z M298.1,780.8
			c-0.2,0.3-0.3,0.6-0.3,1v7.4c0,0.3,0.1,0.6,0.2,0.9l4.7-5.2L298.1,780.8z"/>
		<path class="st35" d="M506.6,784.5c-0.2-3.7-3.2-6.7-7-7v0h-0.5h-0.5v0c-3.7,0.2-6.7,3.2-7,7h0v0.5v0.5h0c0.2,3.7,3.2,6.7,7,7v0
			h0.5h0.5v0c3.7-0.2,6.7-3.2,7-7h0V785L506.6,784.5L506.6,784.5z M496.3,779.1c-0.5,0.6-0.9,1.4-1.2,2.4h-1.5
			C494.3,780.5,495.2,779.7,496.3,779.1 M493.1,782.5h1.8c-0.1,0.6-0.2,1.3-0.2,2h-2C492.7,783.8,492.9,783.1,493.1,782.5
			 M492.6,785.5h2c0,0.7,0.1,1.4,0.2,2h-1.8C492.9,786.9,492.7,786.2,492.6,785.5 M493.6,788.5h1.5c0.3,0.9,0.7,1.7,1.2,2.4
			C495.2,790.3,494.3,789.5,493.6,788.5 M498.6,791.4c-1-0.3-1.9-1.4-2.5-2.9h2.5V791.4z M498.6,787.5h-2.7c-0.1-0.6-0.2-1.3-0.3-2
			h3V787.5z M498.6,784.5h-3c0-0.7,0.1-1.4,0.3-2h2.7V784.5z M498.6,781.5h-2.5c0.5-1.6,1.4-2.7,2.5-2.9V781.5z M504.6,781.5h-1.5
			c-0.3-0.9-0.7-1.7-1.2-2.4C503,779.7,503.9,780.5,504.6,781.5 M499.6,778.6c1,0.3,1.9,1.4,2.4,2.9h-2.4V778.6z M499.6,782.5h2.7
			c0.1,0.6,0.2,1.3,0.3,2h-3V782.5z M499.6,785.5h3c0,0.7-0.1,1.4-0.3,2h-2.7V785.5z M499.6,791.4v-2.9h2.4
			C501.5,790.1,500.6,791.2,499.6,791.4 M501.9,790.9c0.5-0.6,0.9-1.4,1.2-2.4h1.5C503.9,789.5,503,790.3,501.9,790.9 M505.1,787.5
			h-1.8c0.1-0.6,0.2-1.3,0.2-2h2C505.5,786.2,505.4,786.9,505.1,787.5 M503.6,784.5c0-0.7-0.1-1.4-0.2-2h1.8c0.3,0.6,0.4,1.3,0.5,2
			H503.6z"/>
		<path class="st34" d="M432.1,19.4c-6.5,0-11.8,5.3-11.8,11.8c0,6.5,11.8,23.3,11.8,23.3S444,37.7,444,31.2
			C444,24.7,438.7,19.4,432.1,19.4 M432.1,38.3c-3.9,0-7.1-3.2-7.1-7.1c0-3.9,3.2-7.1,7.1-7.1c3.9,0,7.1,3.2,7.1,7.1
			C439.2,35.1,436.1,38.3,432.1,38.3"/>
	</g>
</g>
</svg>
